<svg xmlns="http://www.w3.org/2000/svg" width="17" height="22.671" viewBox="0 0 17 22.671">
  <path id="Icon_fa-solid-bolt-lightning" data-name="Icon fa-solid-bolt-lightning" d="M0,11.333,1.262,1.24A1.416,1.416,0,0,1,2.67,0h7.464a1.2,1.2,0,0,1,1.2,1.2,1.239,1.239,0,0,1-.075.421L9.208,7.083h6.167a1.624,1.624,0,0,1,1.341,2.541L8.208,22.065a1.392,1.392,0,0,1-1.147.607H6.933a1.264,1.264,0,0,1-1.262-1.262,1.206,1.206,0,0,1,.04-.305L7.792,12.75H1.417A1.415,1.415,0,0,1,0,11.333Z" fill="#57bbbd"/>
</svg>
