<?xml version="1.0" encoding="UTF-8"?>
<svg xmlns="http://www.w3.org/2000/svg" version="1.1" viewBox="0 0 85 85">
  <defs>
    <style>
      .cls-1 {
        fill: none;
      }

      .cls-1, .cls-2, .cls-3 {
        stroke: #000;
        stroke-linecap: round;
        stroke-linejoin: round;
        stroke-width: 3px;
      }

      .cls-4, .cls-2 {
        fill: #fff;
      }

      .cls-4, .cls-5, .cls-3 {
        fill-rule: evenodd;
      }

      .cls-6 {
        fill: #cccacb;
      }
    </style>
  </defs>
  <!-- Generator: Adobe Illustrator 28.7.0, SVG Export Plug-In . SVG Version: 1.2.0 Build 65)  -->
  <g>
    <g id="Layer_1">
      <g id="How_Many_Dogs_ICON">
        <circle id="Ellipse_97" class="cls-2" cx="42.5" cy="42.5" r="35.9"/>
        <path id="Path_1566" class="cls-6" d="M72.2,41.4c.6-1.2,2-1.7,3.2-1.2,1.2.6,1.7,1.9,1.2,3.1l-.4.8c-1.5,3.4-2.4,5.3-6.8,7.2-1.1.5-2.2.9-3.3,1.2-.4.9-.8,1.8-1.2,2.7-1.1,1.8-2.8,3.1-4.8,3.5-2.2.6-4.5.6-6.8.2-4.1-.8-7.1,2-8.6,4.4-.3.6-.6,1.2-.9,1.8,0,.2,0,.3,0,.5,0,1.4-1,2.5-2.3,2.6-1.2,0-2.2-.7-2.5-1.8-.2-.5-.2-1.1-.1-1.6-1.2.9-2.5,1.6-4,2-2.6.6-5.4.7-8,0-4-.8-7.8-2.6-10.9-5.3-.2-.2-.5-.4-.6-.6h0c-3.7-3.6-5.4-8.7-4.5-13.8.8-4.7,3-9,6.2-12.4.3-.3.6-.6.8-.9.9-.9,2.5-.9,3.4,0,.9.9.9,2.5,0,3.4h0c-.3.3-.5.5-.7.7-2.6,2.7-4.3,6.2-5,9.9-.6,3.5.5,7.1,3.1,9.6h0c.2.2.3.3.5.4,2.5,2.1,5.4,3.6,8.6,4.2,1.9.4,3.9.4,5.8,0,1.4-.3,2.6-1.2,3.3-2.5.6-1.3.9-2.7.7-4.1,0-1.3,1-2.5,2.3-2.5,1.3,0,2.4,1,2.5,2.3,0,1,0,2-.2,2.9,2.9-3.4,7.4-5,11.8-4.1,1.5.3,3,.3,4.5-.1.7-.1,1.4-.5,1.9-1.1.5-.8.9-1.7,1.1-2.7,0-.6.4-1.2.9-1.6.4-.4.9-.6,1.5-.7,1.2-.3,2.4-.6,3.5-1.2,2.7-1.1,3.2-2.4,4.3-4.8.2-.5,0,0,.3-.7h0Z"/>
        <path id="Path_1567" class="cls-4" d="M35.6,60.5c2.7-1.3,4.5-3.9,4.3-8.4-.2-4.7-6.6-12.6-5.4-16.5,2.4-8.1-6.2-3.8-8.7-3.7-3,.2-2.3-.8-1.8-2.1,3.2-10.2,19.1-11.3,27.4-7.3,7,3.3,9.5,10.1,20,11.2,3.4.3,2.4,5.1,1.4,7.2-1.5,3.3-2,5.1-5.9,6.8-6.8,2.9-2.7-.7-5.8,5-1.4,2.7-6.2,3-9,2.5-9.1-1.8-13.6,9.4-12.3,9.3l-4.3-3.8h0Z"/>
        <path id="Path_1568" class="cls-5" d="M44.6,33c-1.5,1.5-.9,3.2,1.4,3.4.9-1.9.3-3.4-1.4-3.4Z"/>
        <path id="Path_1569" class="cls-5" d="M52.4,30.2c-.7,1.8-.5,2.7,1.7,3.1,1.2-1.9.5-3.6-1.7-3.1Z"/>
        <path id="Path_1570" class="cls-1" d="M19.5,32.1c-6.3,6.2-10,16.9-2.1,24.2,6.9,6.3,23,8.8,22.5-4.3-.2-4.7-6.6-12.6-5.4-16.5,2.4-8.1-6.2-3.8-8.7-3.7-3,.2-2.3-.8-1.8-2.1,3.2-10.2,19.1-11.3,27.4-7.3,7,3.3,9.5,10.1,20,11.2,3.4.3,2.4,5.1,1.4,7.2-1.5,3.3-2,5.1-5.9,6.8-6.8,2.9-2.7-.7-5.8,5-1.4,2.7-6.2,3-9,2.5-9.1-1.8-13.6,9.4-12.3,9.3"/>
        <path id="Path_1571" class="cls-5" d="M47.3,42.6c-3,7.7,4.4,9,7.7,6.1,4.9-4.3-2.4-1-7.5-5.8l-.2-.3Z"/>
        <path id="Path_1572" class="cls-5" d="M72.4,34.2c-3.1.4-8.6,1.1-8.8,4.9,4.8,2.1,7.7,1.4,9.7-3.3l-.9-1.6Z"/>
        <path id="Path_1573" class="cls-3" d="M19.5,32.1c-6.3,6.2-10,16.9-2.1,24.2,6.9,6.3,23,8.8,22.5-4.3-.2-4.7-6.6-12.6-5.4-16.5,2.4-8.1-6.2-3.8-8.7-3.7-3,.2-2.3-.8-1.8-2.1.4-1.3,1-2.5,1.9-3.6l-6.3,6h0Z"/>
      </g>
    </g>
  </g>
</svg>