<svg xmlns="http://www.w3.org/2000/svg" width="751" height="751" viewBox="0 0 751 751">
  <path id="Path_625" data-name="Path 625" d="M601.449,684.437a22.473,22.473,0,0,1,6.01-9.739,28.169,28.169,0,0,1,9.61-5.85c1.125-.45,2.057-.739,2.989-1.029l1.318-.418a34.116,34.116,0,0,0,8-3.857,31.937,31.937,0,0,0,6.557-5.978c.546-.643,1.125-1.35,1.8-2.121.418-.482,1.093-1.221,1.864-2.089a39.116,39.116,0,0,1,6.364-5.625,37.225,37.225,0,0,1,7.489-4.05,23.772,23.772,0,0,1,13.146-1.575,24.438,24.438,0,0,1,11.86,6.01,35.1,35.1,0,0,1,8.742,11.474,32.578,32.578,0,0,1,2.957,13.821,75.555,75.555,0,0,0,.386,7.617,29.183,29.183,0,0,0,1.607,7.2c.964,2.668,2.089,5.271,3.246,7.874v.064a27.679,27.679,0,0,1,2.25,8.132,21.89,21.89,0,0,1-.675,8.485,28.256,28.256,0,0,1-5.432,10.735,27.269,27.269,0,0,1-9.385,7.3,15.992,15.992,0,0,1-5.3,1.479,29.228,29.228,0,0,1-5.3,0,19.235,19.235,0,0,1-7.039-1.993,27.017,27.017,0,0,1-5.753-4.05c-1.061-.964-2.346-2.025-3.632-3.118l-2.314-1.929a22.034,22.034,0,0,0-7.167-4.21,25.189,25.189,0,0,0-8.582-1.446,47.861,47.861,0,0,0-5.271.225,28.509,28.509,0,0,0-5.11.932q-1.061.289-2.121.482a20.14,20.14,0,0,1-15.138-3.214,21.6,21.6,0,0,1-8.582-11.924c-.161-.611-.321-1.286-.45-1.961a31.776,31.776,0,0,1,1.061-15.653ZM736.633,467.808c1-20.056-5.528-32.591-14.913-38.28a26.713,26.713,0,0,0-20.184-2.732,39.727,39.727,0,0,0-20.313,12.888c-13.338,15.3-20.345,42.972-7.328,81.22l.739,2.218c1.093,3.278,1.639,4.885,2.507,5.753.836.836,2.443,1.318,5.593,2.314l2.411.771c28.38,9.064,50.2,10.221,65.856,6.846v3.568c-16.2,3.31-38.44,2.057-66.917-7.071l-2.411-.739c-3.7-1.157-5.56-1.736-7.007-3.182-1.478-1.414-2.089-3.311-3.375-7.135l-.739-2.218c-13.5-39.63-6.042-68.556,8.035-84.659,6.428-7.392,14.238-12.117,22.145-14.013a30.087,30.087,0,0,1,22.788,3.15c10.446,6.3,17.71,19.927,16.649,41.494-.129,2.25-.257,3.857-.354,5.11-.193,1.9-.354,2.668-.322,2.732.064.032.643,0,1.832.032a62.56,62.56,0,0,1,7.81.8c.643.129,1.253.225,1.864.354v3.6c-.8-.161-1.639-.321-2.475-.45a49.579,49.579,0,0,0-7.36-.771c-2.089-.1-3.214-.129-4.146-1.093-1.125-1.125-1-2.507-.739-5.528.1-1.318.257-3.021.354-4.982Zm-15.845-248.8a23.089,23.089,0,0,1,6.01-9.739,28.313,28.313,0,0,1,9.642-5.85c1.093-.45,2.025-.739,2.957-1.028l1.318-.418a31.877,31.877,0,0,0,8-3.889A24.526,24.526,0,0,0,751,196.412v4.4l-.321.225a35.7,35.7,0,0,1-8.839,4.275l-1.382.45c-1,.321-1.993.643-2.764.932a25.312,25.312,0,0,0-8.453,5.11,19.064,19.064,0,0,0-5.078,8.292v.032a28.7,28.7,0,0,0-1.35,6.846,27.467,27.467,0,0,0,.418,7.039,15.137,15.137,0,0,0,.386,1.639,17.972,17.972,0,0,0,7.167,9.964,16.591,16.591,0,0,0,12.5,2.668c.578-.1,1.157-.257,1.8-.418a31.649,31.649,0,0,1,5.689-1.061H751v3.535a27.674,27.674,0,0,0-4.982.932,20.513,20.513,0,0,1-2.121.482,20.06,20.06,0,0,1-15.106-3.214,21.6,21.6,0,0,1-8.582-11.924,13.355,13.355,0,0,1-.45-1.961,31.273,31.273,0,0,1,1.029-15.653Zm-6.91-56.921c.225-.418.482-.932.739-1.478a36.657,36.657,0,0,1,2.668-4.757,16.491,16.491,0,0,1,2.989-3.343,16.3,16.3,0,0,1,8.839-3.857,14.51,14.51,0,0,1,9.867,2.539,18.1,18.1,0,0,1,3.536,3.214A28.387,28.387,0,0,1,744.7,157.3a16.742,16.742,0,0,1,1.7,3.278,44.976,44.976,0,0,1,2.989,12.085,32.557,32.557,0,0,1-1.157,12.5c-1.768,6.075-4.853,10.06-8.742,12.246-4.275,2.443-9.449,2.668-14.978,1.189a12.884,12.884,0,0,1-5.5-3.086,17.968,17.968,0,0,1-3.953-5.625,35.036,35.036,0,0,1-3.246-13.306,43.389,43.389,0,0,1,1.9-14.142l.064-.193.1-.161Zm3.921.1-.739,1.414a40.74,40.74,0,0,0-1.736,12.824,31.933,31.933,0,0,0,2.957,11.988,14.316,14.316,0,0,0,3.15,4.532,9.681,9.681,0,0,0,4.018,2.25c4.628,1.221,8.9,1.093,12.31-.836,3.118-1.768,5.593-5.078,7.1-10.189a29.465,29.465,0,0,0,1.029-11.185,42.083,42.083,0,0,0-2.764-11.121,14.749,14.749,0,0,0-1.382-2.636,24.832,24.832,0,0,0-1.9-2.539,16.018,16.018,0,0,0-2.861-2.571,11.208,11.208,0,0,0-7.521-1.961,12.7,12.7,0,0,0-6.878,3.021,13.618,13.618,0,0,0-2.411,2.668,36.666,36.666,0,0,0-2.378,4.339ZM691.058,0a28.91,28.91,0,0,0,.418,10.478c1.575,7.232,5.785,14.5,12.471,20.57C714.1,40.272,729.948,46.7,751,46.122v3.535c-22.016.579-38.7-6.235-49.432-16.006A43,43,0,0,1,688,11.217,33.112,33.112,0,0,1,687.49,0h3.568Zm42.1,727.216c-20.056-1.382-32.719,4.885-38.569,14.174a25.368,25.368,0,0,0-3.535,9.61H687.49a28.508,28.508,0,0,1,4.114-11.474c6.525-10.317,20.249-17.324,41.815-15.813,2.121.129,3.793.321,5.11.45,1.9.225,2.668.386,2.732.354.032-.032,0-.611.064-1.8A58.366,58.366,0,0,1,751,693.629v6.653a53.134,53.134,0,0,0-5.239,15.3,53.748,53.748,0,0,0-.9,7.328c-.128,2.089-.225,3.246-1.189,4.146-1.125,1.093-2.507.964-5.528.611-1.253-.129-2.86-.289-4.982-.45ZM0,693.629a33.408,33.408,0,0,1,16.1-12.406,26.5,26.5,0,0,1,17.549.1A31.615,31.615,0,0,1,48.79,693.4C56.825,704.942,61,724.034,56.439,751H52.871c4.564-26.195.675-44.579-6.975-55.571A28.121,28.121,0,0,0,32.43,684.661a23.045,23.045,0,0,0-15.2-.1C10.574,686.847,4.4,692.118,0,700.282v-6.653ZM0,46.122a122.484,122.484,0,0,0,33.973-6.139l2.25-.707c3.31-1.029,4.95-1.543,5.817-2.378.836-.836,1.35-2.411,2.411-5.528l.8-2.411A193.805,193.805,0,0,0,52.871,0h3.568A190.148,190.148,0,0,1,48.6,30.084l-.8,2.411c-1.221,3.664-1.832,5.5-3.278,6.91-1.478,1.446-3.407,2.057-7.232,3.246l-2.25.707A126.44,126.44,0,0,1,0,49.657V46.122ZM481.4,0c-12.342,6.653-25.616,14.27-28.187,16.1l-.1.064a1.851,1.851,0,0,0,.129.739,23.118,23.118,0,0,1,1.093,8.035,22.565,22.565,0,0,1-1.768,7.81A24.663,24.663,0,0,1,432.71,47.858a26.517,26.517,0,0,1-11.024-.964,22.84,22.84,0,0,1-9.449-5.753c-5.432-5.5-8.228-14.142-5.367-25.713.193-.771.354-1.029.321-1.093-.032-.032-.418,0-1.254-.1a21.741,21.741,0,0,1-8.292-2.7,23.6,23.6,0,0,1-6.75-5.785A28.622,28.622,0,0,1,387.263,0h3.985a29.612,29.612,0,0,0,2.378,3.535,19.993,19.993,0,0,0,5.753,4.95,18.949,18.949,0,0,0,6.975,2.25c1.864.225,2.957.546,3.7,1.543s.675,2.153.225,3.985c-2.507,10.221-.161,17.71,4.468,22.4a19.547,19.547,0,0,0,8,4.853,23.212,23.212,0,0,0,9.514.836A21.1,21.1,0,0,0,449.3,31.369a18.518,18.518,0,0,0,1.511-6.557,20.427,20.427,0,0,0-.932-6.878,4.651,4.651,0,0,1-.225-2.378,3.547,3.547,0,0,1,1.511-2.346C453.473,11.6,463.437,5.817,474.011,0H481.4ZM0,538.807A49.482,49.482,0,0,0,18.674,530.9a28.144,28.144,0,0,0,10.51-13.628,22.946,22.946,0,0,0-.225-15.235C25.488,492.46,15.717,483.975,0,480.632v-3.6c17.452,3.5,28.348,13.017,32.269,23.816a26.51,26.51,0,0,1,.257,17.549,31.74,31.74,0,0,1-11.8,15.4A53.283,53.283,0,0,1,0,542.375Zm0-342.4a29.853,29.853,0,0,0,4.275-4.275c.546-.643,1.125-1.35,1.8-2.121.418-.482,1.093-1.221,1.864-2.089A37.646,37.646,0,0,1,14.3,182.3a35.687,35.687,0,0,1,7.489-4.05,23.8,23.8,0,0,1,13.146-1.575,24.439,24.439,0,0,1,11.86,6.01,34.668,34.668,0,0,1,8.742,11.474,32.472,32.472,0,0,1,2.957,13.82,75.557,75.557,0,0,0,.386,7.617,29.185,29.185,0,0,0,1.607,7.2c.964,2.668,2.089,5.271,3.246,7.874v.064a27.484,27.484,0,0,1,2.25,8.1,22,22,0,0,1-.675,8.517,28.731,28.731,0,0,1-5.432,10.735,27.27,27.27,0,0,1-9.385,7.3,15.99,15.99,0,0,1-5.3,1.478,29.233,29.233,0,0,1-5.3,0,19.235,19.235,0,0,1-7.039-1.993,27.017,27.017,0,0,1-5.753-4.05c-1.061-.964-2.346-2.025-3.632-3.118l-2.314-1.928a21.481,21.481,0,0,0-7.167-4.21A25.189,25.189,0,0,0,5.4,250.119a41.065,41.065,0,0,0-5.271.225H0v-3.535a50.565,50.565,0,0,1,5.4-.225,28.868,28.868,0,0,1,9.771,1.639,26,26,0,0,1,8.292,4.885l2.25,1.9c1.189,1,2.378,1.993,3.728,3.182a23.52,23.52,0,0,0,4.982,3.536,15.135,15.135,0,0,0,5.721,1.607,28.308,28.308,0,0,0,4.66.032A12.691,12.691,0,0,0,48.95,262.2a24.251,24.251,0,0,0,8.2-6.364,25.066,25.066,0,0,0,4.757-9.417,18.94,18.94,0,0,0,.579-7.2,24.277,24.277,0,0,0-1.993-7.1v-.064c-1.157-2.635-2.314-5.3-3.31-8.035a35.437,35.437,0,0,1-1.832-8.035c-.289-2.636-.354-5.3-.386-7.971a28.942,28.942,0,0,0-2.636-12.374,31.133,31.133,0,0,0-7.874-10.285,21.015,21.015,0,0,0-10.124-5.207,20.46,20.46,0,0,0-11.217,1.382,31.268,31.268,0,0,0-6.782,3.664,33.311,33.311,0,0,0-5.785,5.11c-.45.514-1.029,1.125-1.8,2.025-.546.611-1.125,1.318-1.736,2.057A34.775,34.775,0,0,1,0,200.815v-4.4Zm102.979,7.553a18.2,18.2,0,0,1-2.443,4.468,31.363,31.363,0,0,1-3.15,3.7,44.683,44.683,0,0,1-6.075,5.239,35.322,35.322,0,0,1-7.071,3.953,14.622,14.622,0,0,1-10.446.546,14.81,14.81,0,0,1-7.971-6.878,18.686,18.686,0,0,1-2.7-9.064A16.792,16.792,0,0,1,65.76,196.7a42.117,42.117,0,0,1,5.85-7.778,33.951,33.951,0,0,1,7.714-6.042,27.29,27.29,0,0,1,3.921-1.832,23.29,23.29,0,0,1,3.985-1.157c.064,0,.289-.064.354-.064a13.994,13.994,0,0,1,10.478,2.25,14.49,14.49,0,0,1,5.785,9.064l.064.386a26.986,26.986,0,0,1,.321,6.235,27.345,27.345,0,0,1-1.221,6.139Zm-5.3,2.411a14.818,14.818,0,0,0,1.961-3.568,22.175,22.175,0,0,0,1.061-5.3,21.6,21.6,0,0,0-.289-5.367l-.032-.321A11,11,0,0,0,96,184.97a10.323,10.323,0,0,0-7.81-1.671l-.257.064a21.441,21.441,0,0,0-3.471,1,27.406,27.406,0,0,0-3.407,1.607,30,30,0,0,0-6.91,5.432,38.744,38.744,0,0,0-5.368,7.135,13.544,13.544,0,0,0-2.153,7.328,15.542,15.542,0,0,0,2.282,7.392,10.5,10.5,0,0,0,13.981,4.789,30.7,30.7,0,0,0,6.364-3.535,39.834,39.834,0,0,0,5.592-4.853,26.823,26.823,0,0,0,2.828-3.278ZM36.062,156.557a22.949,22.949,0,0,1-1.382,4.757,20.37,20.37,0,0,1-2.314,4.178,17.672,17.672,0,0,1-2.732,3.053,16.9,16.9,0,0,1-3.535,2.475,15.178,15.178,0,0,1-3.825,1.446A19.257,19.257,0,0,1,11.7,171.76a15.983,15.983,0,0,1-8.582-7.392,16.363,16.363,0,0,1-1.607-4.307,33.678,33.678,0,0,1,5.882-28.477,15.813,15.813,0,0,1,7.264-5.657,17.127,17.127,0,0,1,9.417-.643,17.108,17.108,0,0,1,8.035,3.535,14.025,14.025,0,0,1,4.564,6.91,23.088,23.088,0,0,1,.932,4.757,26.878,26.878,0,0,1,.064,5.078,90.513,90.513,0,0,1-1.382,9.835l-.225,1.157Zm-4.628,3.407a20.664,20.664,0,0,0,1.157-4.018l.193-1.157a88.556,88.556,0,0,0,1.35-9.482,23.056,23.056,0,0,0-.032-4.468,21.345,21.345,0,0,0-.8-4.082,10.489,10.489,0,0,0-3.439-5.207,13.8,13.8,0,0,0-6.428-2.8,13.986,13.986,0,0,0-7.521.45,12.629,12.629,0,0,0-5.657,4.468,30.236,30.236,0,0,0-5.3,25.616A13.864,13.864,0,0,0,6.235,162.7a12.333,12.333,0,0,0,6.717,5.753A14.9,14.9,0,0,0,21.47,169a11.211,11.211,0,0,0,2.957-1.093,13,13,0,0,0,2.828-1.961,14.978,14.978,0,0,0,2.25-2.507A18.355,18.355,0,0,0,31.434,159.964Zm13.821-3.246a45.524,45.524,0,0,1,4.5-8.71,29.967,29.967,0,0,1,6.846-7.3,17.266,17.266,0,0,1,10.349-3.632,18.972,18.972,0,0,1,10.735,3.246,12.6,12.6,0,0,1,4.532,5.143,19.729,19.729,0,0,1,1.8,6.332,19.983,19.983,0,0,1-.225,6.653,26.529,26.529,0,0,1-2.057,6.2,51.122,51.122,0,0,1-4.243,7.553,41.8,41.8,0,0,1-5.625,6.75,17.112,17.112,0,0,1-9.032,4.693,16.2,16.2,0,0,1-9.931-1.671,17.993,17.993,0,0,1-7.617-7.553,16.79,16.79,0,0,1-1.736-10.381c.289-1.768.675-3.343,1.093-4.918l.546-2.25.064-.161Zm7.425-6.75a42.741,42.741,0,0,0-4.082,7.907L48.083,160c-.418,1.575-.8,3.15-1.061,4.6a13.17,13.17,0,0,0,1.414,8.2,14.312,14.312,0,0,0,6.075,6.042,12.624,12.624,0,0,0,7.778,1.318,13.158,13.158,0,0,0,7.135-3.76,38.6,38.6,0,0,0,5.143-6.139,48.72,48.72,0,0,0,3.953-7.071,23.977,23.977,0,0,0,1.8-5.367,16.959,16.959,0,0,0,.193-5.56,16.227,16.227,0,0,0-1.446-5.207,9.486,9.486,0,0,0-3.311-3.76,15.945,15.945,0,0,0-8.774-2.7,14.185,14.185,0,0,0-8.26,2.957,26.609,26.609,0,0,0-6.042,6.428Zm63.542-83.791c2.186.257,2.893-1.864,3.632-4.114l.354-1a228.553,228.553,0,0,1,9.321-22.306c3.439-7.3,7.167-14.463,10.864-21.534a4.412,4.412,0,0,0,.771-2.346,4.656,4.656,0,0,0-1.318-2.153l-.675-.771A24.727,24.727,0,0,1,136.6,8.774,33.248,33.248,0,0,1,132.709,0h3.7a29.571,29.571,0,0,0,3.214,6.91,18.713,18.713,0,0,0,2.186,2.7l.675.771a7.367,7.367,0,0,1,2.186,4.05,7.294,7.294,0,0,1-1.157,4.435c-3.664,7.039-7.36,14.142-10.8,21.406a227.883,227.883,0,0,0-9.16,21.952l-.354.964c-1.189,3.632-2.346,7.071-7.36,6.525-10.349-1.189-17.485,1.928-21.566,6.91a18.686,18.686,0,0,0-3.825,8.389,21.3,21.3,0,0,0,.482,9.417c1.928,6.878,7.328,13.113,16.1,15.653a20.108,20.108,0,0,0,7.521.771,19.088,19.088,0,0,0,7.007-2.186c1.671-.9,2.764-1.253,3.921-.868,1.189.418,1.8,1.382,2.507,3.15,3.793,9.8,10.028,14.592,16.488,15.781a19.639,19.639,0,0,0,9.353-.643,22.551,22.551,0,0,0,8.26-4.789,21.048,21.048,0,0,0,6.492-20.377,18.641,18.641,0,0,0-2.539-6.267,19.913,19.913,0,0,0-4.693-5.046,4.965,4.965,0,0,1-1.575-1.832,3.641,3.641,0,0,1-.1-2.8c1.253-3.5,9.449-20.891,16.424-34.551,4.885-9.546,9.353-17.356,10.992-18a6.857,6.857,0,0,1,1.832-.354,7.7,7.7,0,0,1,1.928.161,15.024,15.024,0,0,0,5.5-.032,16.521,16.521,0,0,0,5.207-2.025c8.582-5.207,12.085-12.246,12.149-19a21.344,21.344,0,0,0-2.218-9.546c-.257-.579-.579-1.125-.868-1.639h4.018l.032.064a25.126,25.126,0,0,1,2.571,11.153c-.064,7.874-4.082,16.038-13.885,21.984v.032a20.012,20.012,0,0,1-6.3,2.443,17.976,17.976,0,0,1-6.814.032,7.027,7.027,0,0,0-1.157-.1,2.729,2.729,0,0,0-.771.161h-.032c-.643.225-4.5,7.392-9.032,16.263-6.91,13.531-15.01,30.694-16.231,34.133l-.032.1a1.723,1.723,0,0,0,.482.514,23.842,23.842,0,0,1,5.56,5.978,22.305,22.305,0,0,1,3.021,7.425,24.562,24.562,0,0,1-7.585,23.752,25.742,25.742,0,0,1-9.61,5.528,22.837,22.837,0,0,1-11.024.739c-7.585-1.382-14.849-6.878-19.156-17.967-.289-.739-.289-1.061-.354-1.093a11.4,11.4,0,0,1-1.093.643,22.307,22.307,0,0,1-8.357,2.571,23.821,23.821,0,0,1-8.839-.868c-10.06-2.925-16.3-10.156-18.513-18.1a25.135,25.135,0,0,1-.546-11.024,21.912,21.912,0,0,1,4.564-9.964c4.789-5.85,12.985-9.546,24.684-8.228ZM426.379,723.905c1.639,1.446,3.439.1,5.335-1.286l.868-.643a233.519,233.519,0,0,1,20.441-12.921c7.039-3.985,14.174-7.714,21.245-11.346,1.093-.578,1.736-1,1.993-1.511a4.421,4.421,0,0,0,.161-2.507l-.129-1a24.212,24.212,0,0,1-.257-4.082c.739-13.6,8.678-22.338,17.935-25.937a26.476,26.476,0,0,1,13.756-1.511,20.358,20.358,0,0,1,11.764,6.2c5.432,5.914,7.521,15.878,2.378,29.923-.128.418-.45.257-.353.418s.1-.161.546-.1h.032c1.864.321,3.728.611,5.528,1.061a22.888,22.888,0,0,1,16.617,16.3,26.394,26.394,0,0,1,.707,11.314,25.023,25.023,0,0,1-4.307,10.639c-4.564,6.4-12.535,10.767-23.977,10.028h-.032a20.242,20.242,0,0,1-6.557-1.607,18.386,18.386,0,0,1-5.592-3.921,4.858,4.858,0,0,0-.9-.707,2.306,2.306,0,0,0-.707-.321h-.032c-.643-.193-7.939,3.471-16.713,8.1-1.543.8-3.118,1.671-4.725,2.507h-7.392c3.5-1.928,7.1-3.857,10.478-5.625,9.449-5.014,17.645-8.871,19.284-8.421a6.3,6.3,0,0,1,1.7.771,9.3,9.3,0,0,1,1.511,1.221,14.482,14.482,0,0,0,4.5,3.15,16.441,16.441,0,0,0,5.4,1.318c10.06.675,16.97-3.053,20.891-8.549a21.428,21.428,0,0,0,3.664-9.1,22.6,22.6,0,0,0-.611-9.835,19.357,19.357,0,0,0-14.078-13.821,51.1,51.1,0,0,0-5.207-1l-.064-.032c-1.511-.225-2.443-.643-2.989-1.575s-.482-1.961.064-3.407c4.6-12.631,2.925-21.341-1.671-26.355a16.62,16.62,0,0,0-9.739-5.078,22.915,22.915,0,0,0-11.924,1.318c-8.067,3.118-15.01,10.8-15.653,22.788a19.148,19.148,0,0,0,.257,3.5l.1,1a6.354,6.354,0,0,1-4.018,7.585c-7.071,3.6-14.174,7.328-21.149,11.281a228.015,228.015,0,0,0-20.12,12.7l-.836.611c-3.053,2.282-5.978,4.435-9.771,1.093-7.778-6.878-15.428-8.453-21.631-6.685a18.277,18.277,0,0,0-7.939,4.66,21.163,21.163,0,0,0-5.014,7.971,22.277,22.277,0,0,0,1.8,18.513h-3.985a25.577,25.577,0,0,1-1.157-19.67,24.631,24.631,0,0,1,5.882-9.353,21.984,21.984,0,0,1,9.449-5.528c7.3-2.057,16.135-.354,24.941,7.457ZM631.5,48.436c-.932,1.961.868,3.343,2.732,4.757l.836.675a224.1,224.1,0,0,1,18.1,16.038c5.721,5.56,11.314,11.41,16.842,17.26A4.755,4.755,0,0,0,672,88.644a5,5,0,0,0,2.443-.546l.932-.418A24.921,24.921,0,0,1,679.23,86.3c13.274-3.086,23.881,2.089,29.891,10a26.612,26.612,0,0,1,5.3,12.792,20.376,20.376,0,0,1-2.668,13.017c-4.178,6.878-13.178,11.667-28.091,10.639-.45-.032-.354-.354-.482-.225s.193.064.225.482v.032c.225,1.832.45,3.664.514,5.592a22.944,22.944,0,0,1-10.992,20.538,26.4,26.4,0,0,1-10.7,3.793A24.51,24.51,0,0,1,650.85,161.8c-7.457-2.6-13.885-9.064-16.327-20.249v-.032a19.8,19.8,0,0,1-.289-6.717,18.118,18.118,0,0,1,2.186-6.46,5,5,0,0,0,.45-1.061,3.782,3.782,0,0,0,.129-.8c-.032-.675-5.56-6.653-12.471-13.82-10.574-10.928-24.234-24.17-27.062-26.42l-.1-.064a2.356,2.356,0,0,0-.643.321A23.216,23.216,0,0,1,589.3,89.8a22.177,22.177,0,0,1-8,.482A24.583,24.583,0,0,1,561.273,75.4a25.905,25.905,0,0,1-2.121-10.864,22.28,22.28,0,0,1,2.86-10.671c3.76-6.75,11.281-11.828,23.206-12.31a10.219,10.219,0,0,0,1.125,0c0-.032-.1-.386-.257-1.221a22.728,22.728,0,0,1,.257-8.742,23.72,23.72,0,0,1,3.728-8.1c6.01-8.582,14.849-12.117,23.077-11.667a25.027,25.027,0,0,1,10.606,3.053,22.063,22.063,0,0,1,7.971,7.521c3.985,6.428,4.821,15.4-.225,26.034Zm.579,7.585c-3.021-2.314-5.914-4.532-3.76-9.1,4.435-9.417,3.793-17.163.386-22.659a18.229,18.229,0,0,0-6.685-6.3,21.176,21.176,0,0,0-9.064-2.6c-7.1-.386-14.753,2.7-19.992,10.156a19.571,19.571,0,0,0-3.15,6.878,18.226,18.226,0,0,0-.225,7.36c.289,1.864.289,3.021-.45,3.953-.771,1-1.9,1.286-3.793,1.35-10.478.45-17.035,4.789-20.249,10.542a19.384,19.384,0,0,0-2.443,9.032,22.42,22.42,0,0,0,1.864,9.353,21.091,21.091,0,0,0,17.2,12.76,18.178,18.178,0,0,0,6.75-.386,19.046,19.046,0,0,0,6.3-2.828,5.424,5.424,0,0,1,2.218-.868,3.627,3.627,0,0,1,2.7.8c2.893,2.314,16.713,15.717,27.384,26.741,7.424,7.714,13.4,14.463,13.435,16.2a5.064,5.064,0,0,1-.257,1.832,8.145,8.145,0,0,1-.739,1.8,14.724,14.724,0,0,0-1.768,5.207,16.314,16.314,0,0,0,.225,5.56c2.186,9.8,7.682,15.428,14.045,17.677a21.524,21.524,0,0,0,9.771.964,22.692,22.692,0,0,0,9.257-3.278,19.455,19.455,0,0,0,9.353-17.42c-.064-1.7-.257-3.5-.482-5.3v-.032c-.193-1.511-.064-2.507.675-3.311s1.736-1,3.31-.868c13.4.9,21.309-3.15,24.845-8.967a16.646,16.646,0,0,0,2.153-10.767,22.665,22.665,0,0,0-4.6-11.089c-5.239-6.878-14.56-11.41-26.259-8.678a23.451,23.451,0,0,0-3.246,1.189l-.964.418a7.594,7.594,0,0,1-4.532.739,7.458,7.458,0,0,1-3.857-2.507c-5.4-5.721-10.928-11.506-16.713-17.131a222.855,222.855,0,0,0-17.838-15.781l-.8-.643Zm-147.14,50.3c.964-20.088-5.528-32.623-14.945-38.28a26.612,26.612,0,0,0-20.152-2.732c-7.2,1.7-14.367,6.075-20.313,12.888-13.371,15.3-20.345,42.972-7.328,81.187l.739,2.25c1.093,3.278,1.639,4.885,2.507,5.753.836.8,2.411,1.318,5.56,2.282l2.443.771c42.3,13.563,70.067,9.449,84.53-1.028a28.214,28.214,0,0,0,10.51-13.66,22.848,22.848,0,0,0-.225-15.2c-3.664-10.06-14.271-18.931-31.434-21.888a53.119,53.119,0,0,0-7.36-.739c-2.089-.1-3.246-.161-4.178-1.093-1.093-1.125-1-2.507-.739-5.528.129-1.318.289-3.021.386-4.982Zm-13.113-41.3c10.446,6.3,17.677,19.9,16.617,41.462-.1,2.282-.225,3.889-.353,5.11-.161,1.928-.322,2.7-.289,2.732.032.064.611,0,1.8.064a55.929,55.929,0,0,1,7.81.8c18.545,3.182,30.116,12.985,34.166,24.138a26.31,26.31,0,0,1,.257,17.549,31.407,31.407,0,0,1-11.8,15.4c-15.2,11.056-44.1,15.492-87.68,1.543l-2.378-.771c-3.7-1.125-5.56-1.7-7.007-3.15-1.478-1.446-2.121-3.343-3.375-7.135l-.771-2.218c-13.467-39.662-6.01-68.556,8.035-84.691a43.266,43.266,0,0,1,22.177-13.981,29.963,29.963,0,0,1,22.788,3.15ZM269.918,653.549c-13.628-14.817-27.127-18.931-37.765-16.231a26.644,26.644,0,0,0-16.07,12.438A39.571,39.571,0,0,0,211,673.284c1.543,20.249,16.36,44.643,52.711,62.192l2.121,1.029c3.085,1.543,4.628,2.282,5.85,2.25,1.189,0,2.668-.8,5.56-2.346l2.25-1.189c39.34-20.667,55.893-43.326,58.56-60.971a28.153,28.153,0,0,0-2.346-17.067,22.751,22.751,0,0,0-11.024-10.51c-9.739-4.468-23.495-3.118-37.637,7.039a56.228,56.228,0,0,0-5.689,4.725c-1.543,1.414-2.378,2.185-3.7,2.218h-.032c-1.543,0-2.475-1.061-4.435-3.375-.8-.964-1.864-2.218-3.278-3.728Zm-38.633-19.67c11.8-3.021,26.58,1.382,41.237,17.26,1.446,1.575,2.539,2.86,3.375,3.857,1.253,1.446,1.671,2.121,1.736,2.121.1,0,.418-.45,1.318-1.253a54.761,54.761,0,0,1,6.042-5.014c15.267-10.992,30.373-12.342,41.172-7.392a26.556,26.556,0,0,1,12.7,12.117,31.807,31.807,0,0,1,2.7,19.188c-2.8,18.609-19.927,42.329-60.425,63.574l-2.218,1.189c-3.407,1.832-5.142,2.732-7.167,2.764-2.057.032-3.857-.836-7.457-2.6l-2.121-1.029c-37.7-18.192-53.064-43.776-54.7-65.117a43.4,43.4,0,0,1,5.56-25.616,30.121,30.121,0,0,1,18.256-14.045Zm18.449-512.837a23.008,23.008,0,0,1,6.01-9.771,28.312,28.312,0,0,1,9.642-5.85c1.093-.418,2.025-.707,2.957-1.028l1.318-.418a32.932,32.932,0,0,0,8-3.857,30.2,30.2,0,0,0,6.557-5.946c.546-.675,1.157-1.382,1.832-2.153.418-.482,1.061-1.221,1.832-2.057a37.844,37.844,0,0,1,6.364-5.657,38.38,38.38,0,0,1,7.521-4.05,23.988,23.988,0,0,1,13.113-1.575,24.6,24.6,0,0,1,11.892,6.042,34.885,34.885,0,0,1,8.71,11.442,33.083,33.083,0,0,1,2.989,13.821,66.787,66.787,0,0,0,.354,7.617,32.7,32.7,0,0,0,1.607,7.232c1,2.636,2.121,5.239,3.246,7.842l.032.064a28.7,28.7,0,0,1,2.25,8.132,22.692,22.692,0,0,1-.675,8.517,28.879,28.879,0,0,1-5.464,10.7,27.741,27.741,0,0,1-9.385,7.328,15.523,15.523,0,0,1-5.3,1.446,29.227,29.227,0,0,1-5.3,0,18.632,18.632,0,0,1-7.039-1.993,26.677,26.677,0,0,1-5.753-4.05c-1.061-.932-2.346-2.025-3.632-3.086l-2.282-1.961a23.345,23.345,0,0,0-7.167-4.21,25.508,25.508,0,0,0-8.614-1.446,48.189,48.189,0,0,0-5.271.225,28.5,28.5,0,0,0-5.11.932,20.506,20.506,0,0,1-2.121.482,20.191,20.191,0,0,1-15.106-3.182,21.671,21.671,0,0,1-8.582-11.956,12.466,12.466,0,0,1-.45-1.961,32.915,32.915,0,0,1-.482-7.907,32.139,32.139,0,0,1,1.511-7.714Zm8.453-7.2a18.767,18.767,0,0,0-5.078,8.26v.032a28.643,28.643,0,0,0-1.35,6.878,27.469,27.469,0,0,0,.418,7.039q.145.771.386,1.639a18.083,18.083,0,0,0,7.167,9.964,16.58,16.58,0,0,0,12.5,2.636,14.333,14.333,0,0,0,1.8-.418,34.658,34.658,0,0,1,5.689-1.029,55.1,55.1,0,0,1,5.657-.257,29.161,29.161,0,0,1,9.771,1.671,26.252,26.252,0,0,1,8.292,4.853l2.25,1.9c1.189,1,2.378,1.993,3.7,3.214a23.534,23.534,0,0,0,5.014,3.5,14.968,14.968,0,0,0,5.721,1.607,25.15,25.15,0,0,0,4.66.032,12.454,12.454,0,0,0,4.114-1.125,24.025,24.025,0,0,0,8.2-6.364,25.263,25.263,0,0,0,4.789-9.449,18.181,18.181,0,0,0,.546-7.167,25.141,25.141,0,0,0-1.961-7.135l-.032-.032c-1.157-2.668-2.314-5.335-3.31-8.067a33.376,33.376,0,0,1-1.8-8.035,65.549,65.549,0,0,1-.386-7.971,29.441,29.441,0,0,0-2.668-12.374,31.355,31.355,0,0,0-7.842-10.285,21.111,21.111,0,0,0-10.156-5.207,20.8,20.8,0,0,0-11.217,1.382,35.223,35.223,0,0,0-6.782,3.664,36.029,36.029,0,0,0-5.785,5.11c-.45.514-1,1.157-1.768,2.025-.546.643-1.125,1.318-1.768,2.089a33.957,33.957,0,0,1-7.328,6.621,35.789,35.789,0,0,1-8.839,4.307l-1.382.418c-1,.321-1.993.643-2.764.932a24.864,24.864,0,0,0-8.453,5.142Zm124.738-7.874a18.6,18.6,0,0,1-2.411,4.468,29.205,29.205,0,0,1-3.182,3.7,47.027,47.027,0,0,1-6.042,5.271,34.588,34.588,0,0,1-7.1,3.921,14.047,14.047,0,0,1-18.385-6.3,18.954,18.954,0,0,1-2.732-9.1,17.064,17.064,0,0,1,2.636-9.224,44.934,44.934,0,0,1,5.85-7.746,33.759,33.759,0,0,1,7.714-6.042,29.192,29.192,0,0,1,3.921-1.864,25.928,25.928,0,0,1,4.018-1.157,1.367,1.367,0,0,0,.354-.064,13.787,13.787,0,0,1,10.446,2.282,14.32,14.32,0,0,1,5.785,9.064l.064.354a23.987,23.987,0,0,1,.321,6.235,25.617,25.617,0,0,1-1.221,6.171Zm-5.271,2.411a17.418,17.418,0,0,0,1.961-3.568,23.109,23.109,0,0,0,1.029-5.3,21.573,21.573,0,0,0-.257-5.368l-.064-.289A10.788,10.788,0,0,0,375.982,87a10.264,10.264,0,0,0-7.842-1.671l-.257.032a22.044,22.044,0,0,0-3.439,1,23.659,23.659,0,0,0-3.407,1.607,30.005,30.005,0,0,0-6.91,5.432,41.2,41.2,0,0,0-5.4,7.135,13.776,13.776,0,0,0-2.121,7.328,15.381,15.381,0,0,0,2.25,7.392,11.323,11.323,0,0,0,6.042,5.271,11.157,11.157,0,0,0,7.971-.45,33.328,33.328,0,0,0,6.364-3.568,43.9,43.9,0,0,0,5.592-4.821A30.235,30.235,0,0,0,377.653,108.379ZM316.04,58.56a23.8,23.8,0,0,1-1.382,4.757,19.306,19.306,0,0,1-2.346,4.21,22.114,22.114,0,0,1-2.7,3.053,20.376,20.376,0,0,1-3.535,2.475,16.7,16.7,0,0,1-3.857,1.414,18.584,18.584,0,0,1-10.542-.707,15.913,15.913,0,0,1-8.614-7.392,17.066,17.066,0,0,1-1.575-4.307,33.738,33.738,0,0,1,5.882-28.477,16.08,16.08,0,0,1,7.264-5.657,17.127,17.127,0,0,1,9.417-.643,17.647,17.647,0,0,1,8,3.535,14.049,14.049,0,0,1,4.564,6.942,23.254,23.254,0,0,1,.964,4.725,30.233,30.233,0,0,1,.064,5.11c-.257,3.31-.836,6.557-1.414,9.8l-.193,1.157ZM311.379,62a20.977,20.977,0,0,0,1.157-4.05l.225-1.157c.546-3.15,1.125-6.332,1.35-9.449a26.3,26.3,0,0,0-.064-4.5,18.839,18.839,0,0,0-.8-4.05,10.753,10.753,0,0,0-3.407-5.239,14.1,14.1,0,0,0-6.428-2.8,13.93,13.93,0,0,0-7.521.482,12.384,12.384,0,0,0-5.657,4.435,31.552,31.552,0,0,0-5.592,12.213,31.557,31.557,0,0,0,.289,13.4,13.357,13.357,0,0,0,1.253,3.407,12.443,12.443,0,0,0,6.717,5.753,15.233,15.233,0,0,0,8.517.579,12.21,12.21,0,0,0,2.989-1.093,15.333,15.333,0,0,0,2.828-1.993,16.305,16.305,0,0,0,2.218-2.507A15.161,15.161,0,0,0,311.379,62Zm13.853-3.246a44.759,44.759,0,0,1,4.468-8.742,29.879,29.879,0,0,1,6.846-7.264,17.592,17.592,0,0,1,10.349-3.664,19.323,19.323,0,0,1,10.767,3.246,12.753,12.753,0,0,1,4.5,5.143,21.148,21.148,0,0,1,1.607,13.017,28.415,28.415,0,0,1-2.057,6.171,53.148,53.148,0,0,1-4.243,7.585,41.5,41.5,0,0,1-5.657,6.717,17,17,0,0,1-9.032,4.693,16.1,16.1,0,0,1-9.9-1.671,17.747,17.747,0,0,1-7.617-7.521A16.683,16.683,0,0,1,323.5,66.049c.289-1.736.707-3.343,1.093-4.918l.579-2.25.064-.129ZM332.624,52a43.412,43.412,0,0,0-4.082,7.874L328.028,62c-.386,1.575-.8,3.15-1.029,4.6a13.252,13.252,0,0,0,1.382,8.228,13.974,13.974,0,0,0,6.107,6.01,12.342,12.342,0,0,0,7.746,1.318,13.31,13.31,0,0,0,7.135-3.728,37.643,37.643,0,0,0,5.175-6.171,47.083,47.083,0,0,0,3.953-7.071,23.448,23.448,0,0,0,1.8-5.368,17.886,17.886,0,0,0,.193-5.56,17.388,17.388,0,0,0-1.478-5.207,9.348,9.348,0,0,0-3.278-3.728,15.512,15.512,0,0,0-8.774-2.7,14.091,14.091,0,0,0-8.292,2.925A26.164,26.164,0,0,0,332.624,52Zm-89.8,12.117c.225-.45.482-.932.739-1.478a34.905,34.905,0,0,1,2.668-4.789,17.392,17.392,0,0,1,2.989-3.343,16.3,16.3,0,0,1,8.839-3.857,14.685,14.685,0,0,1,9.867,2.539,19.18,19.18,0,0,1,3.535,3.214,28.4,28.4,0,0,1,2.186,2.893,17.7,17.7,0,0,1,1.7,3.278A44.9,44.9,0,0,1,278.339,74.7a32.337,32.337,0,0,1-1.157,12.471c-1.768,6.075-4.853,10.06-8.742,12.278-4.275,2.411-9.449,2.636-14.978,1.157a12.829,12.829,0,0,1-5.5-3.053,18.111,18.111,0,0,1-3.953-5.657,35.036,35.036,0,0,1-3.246-13.306,43.385,43.385,0,0,1,1.9-14.142l.064-.161.1-.161Zm3.921.064-.739,1.446a40.5,40.5,0,0,0-1.736,12.824,31.924,31.924,0,0,0,2.957,11.956,14.314,14.314,0,0,0,3.15,4.532,9.156,9.156,0,0,0,4.018,2.25c4.628,1.253,8.9,1.093,12.31-.836,3.118-1.768,5.592-5.046,7.1-10.189a29.359,29.359,0,0,0,1.028-11.153,42,42,0,0,0-2.764-11.153,14.752,14.752,0,0,0-1.382-2.636,24.4,24.4,0,0,0-1.9-2.507,16.273,16.273,0,0,0-2.861-2.6,11.208,11.208,0,0,0-7.521-1.961,12.646,12.646,0,0,0-6.878,3.053,14.415,14.415,0,0,0-2.411,2.636,39.362,39.362,0,0,0-2.378,4.339ZM520.969,262.75a22.722,22.722,0,0,1,5.978-9.739,28.625,28.625,0,0,1,9.642-5.85c1.093-.45,2.025-.739,2.957-1.028l1.318-.418a31.875,31.875,0,0,0,8-3.889,30.277,30.277,0,0,0,6.589-5.946c.514-.643,1.125-1.35,1.8-2.121.418-.482,1.061-1.221,1.832-2.089a37.648,37.648,0,0,1,6.364-5.625,36.758,36.758,0,0,1,7.521-4.05,23.693,23.693,0,0,1,13.113-1.575,24.4,24.4,0,0,1,11.892,6.01,34.565,34.565,0,0,1,8.71,11.474,32.488,32.488,0,0,1,2.989,13.821,67.124,67.124,0,0,0,.354,7.617,30.782,30.782,0,0,0,1.639,7.2c.964,2.668,2.089,5.271,3.214,7.874l.032.064a28.494,28.494,0,0,1,2.25,8.1,22,22,0,0,1-.675,8.517,28.789,28.789,0,0,1-5.464,10.735,27.147,27.147,0,0,1-9.353,7.3,15.954,15.954,0,0,1-5.335,1.478,28.879,28.879,0,0,1-5.271,0A19.585,19.585,0,0,1,584,308.615a27.848,27.848,0,0,1-5.753-4.05c-1.061-.964-2.346-2.025-3.6-3.118l-2.314-1.928a21.8,21.8,0,0,0-7.167-4.21,25.373,25.373,0,0,0-8.614-1.446,41.574,41.574,0,0,0-5.271.225,27.663,27.663,0,0,0-5.078.932c-.707.193-1.414.354-2.153.482a20.06,20.06,0,0,1-15.106-3.214,21.6,21.6,0,0,1-8.582-11.924,17.522,17.522,0,0,1-.45-1.961,32.914,32.914,0,0,1-.482-7.907,31.244,31.244,0,0,1,1.543-7.746Zm8.421-7.2a19.683,19.683,0,0,0-5.078,8.292v.032a28.694,28.694,0,0,0-1.35,6.846,28.988,28.988,0,0,0,.418,7.039,15.107,15.107,0,0,0,.386,1.639,17.972,17.972,0,0,0,7.167,9.964,16.623,16.623,0,0,0,12.5,2.668c.579-.1,1.157-.257,1.8-.418a32,32,0,0,1,5.721-1.061,54.489,54.489,0,0,1,5.625-.225,29.14,29.14,0,0,1,9.771,1.639,26.353,26.353,0,0,1,8.292,4.885l2.25,1.9c1.189,1,2.378,1.993,3.728,3.182a23.518,23.518,0,0,0,4.982,3.535,15.134,15.134,0,0,0,5.721,1.607,28.3,28.3,0,0,0,4.66.032,12.511,12.511,0,0,0,4.114-1.157,24.067,24.067,0,0,0,8.228-6.364,25.544,25.544,0,0,0,4.757-9.417,18.938,18.938,0,0,0,.578-7.2,25.306,25.306,0,0,0-1.993-7.1l-.032-.064c-1.157-2.636-2.314-5.3-3.31-8.035a33.718,33.718,0,0,1-1.8-8.035c-.289-2.636-.354-5.3-.386-7.971a29.425,29.425,0,0,0-2.636-12.374,31.568,31.568,0,0,0-7.875-10.285,20.972,20.972,0,0,0-10.156-5.207,20.381,20.381,0,0,0-11.185,1.382,31.506,31.506,0,0,0-6.814,3.664,34.332,34.332,0,0,0-5.753,5.11c-.45.514-1.029,1.125-1.8,2.025-.546.611-1.125,1.318-1.768,2.057a33.959,33.959,0,0,1-7.3,6.653,36.473,36.473,0,0,1-8.871,4.275l-1.35.45c-1,.321-1.993.643-2.8.932a25.312,25.312,0,0,0-8.453,5.11Zm124.738-7.842a19.232,19.232,0,0,1-2.411,4.468,34.749,34.749,0,0,1-3.15,3.7,46.711,46.711,0,0,1-6.075,5.239,35.317,35.317,0,0,1-7.071,3.953,14.7,14.7,0,0,1-10.478.546,14.862,14.862,0,0,1-7.939-6.878,18.737,18.737,0,0,1-2.732-9.064,17.345,17.345,0,0,1,2.636-9.224,43.76,43.76,0,0,1,5.882-7.778,33.953,33.953,0,0,1,7.714-6.042,26.919,26.919,0,0,1,3.889-1.832,22.806,22.806,0,0,1,4.018-1.157c.064,0,.289-.064.354-.064a13.914,13.914,0,0,1,10.446,2.25A14.49,14.49,0,0,1,655,234.884l.064.386a23.844,23.844,0,0,1,.321,6.235,24.182,24.182,0,0,1-1.221,6.139l-.032.064Zm-5.271,2.411a14.813,14.813,0,0,0,1.961-3.568,22.177,22.177,0,0,0,1.061-5.3,21.6,21.6,0,0,0-.289-5.368l-.064-.321a10.827,10.827,0,0,0-4.339-6.846,10.354,10.354,0,0,0-7.81-1.671l-.289.064a22.043,22.043,0,0,0-3.439,1,23.664,23.664,0,0,0-3.407,1.607,30,30,0,0,0-6.91,5.432,38.743,38.743,0,0,0-5.368,7.135,13.544,13.544,0,0,0-2.153,7.328,15.848,15.848,0,0,0,2.25,7.392,11.459,11.459,0,0,0,6.042,5.271,11.339,11.339,0,0,0,7.971-.482,30.7,30.7,0,0,0,6.364-3.535,39.833,39.833,0,0,0,5.592-4.853,29.926,29.926,0,0,0,2.828-3.278ZM587.243,200.3a22.951,22.951,0,0,1-1.382,4.757,20.369,20.369,0,0,1-2.314,4.178,18.315,18.315,0,0,1-6.268,5.528,15.407,15.407,0,0,1-3.857,1.446,19.162,19.162,0,0,1-10.542-.707,15.982,15.982,0,0,1-8.582-7.392,16.358,16.358,0,0,1-1.607-4.307,34.442,34.442,0,0,1-.289-14.913,34.913,34.913,0,0,1,6.171-13.563,15.653,15.653,0,0,1,7.264-5.657,19.057,19.057,0,0,1,17.452,2.893,14.243,14.243,0,0,1,4.564,6.91,25.436,25.436,0,0,1,.932,4.757,29.861,29.861,0,0,1,.064,5.078,99.225,99.225,0,0,1-1.414,9.835l-.193,1.157Zm-4.66,3.407a16.983,16.983,0,0,0,1.157-4.018l.225-1.157c.546-3.182,1.125-6.332,1.35-9.481a25.923,25.923,0,0,0-.032-4.468,24.144,24.144,0,0,0-.8-4.082,10.93,10.93,0,0,0-3.439-5.207,15.614,15.614,0,0,0-13.949-2.346,12.462,12.462,0,0,0-5.657,4.468,30.236,30.236,0,0,0-5.3,25.616,15.255,15.255,0,0,0,1.253,3.407,12.555,12.555,0,0,0,6.717,5.753,15.029,15.029,0,0,0,8.549.546,11.21,11.21,0,0,0,2.957-1.093,13.821,13.821,0,0,0,2.828-1.961,18.438,18.438,0,0,0,2.25-2.507A16.584,16.584,0,0,0,582.583,203.708Zm13.853-3.246a45.406,45.406,0,0,1,4.468-8.71,30.745,30.745,0,0,1,6.878-7.3,17.175,17.175,0,0,1,10.317-3.632,19.071,19.071,0,0,1,10.767,3.246,13.084,13.084,0,0,1,4.532,5.143,19.73,19.73,0,0,1,1.8,6.332,20.872,20.872,0,0,1-.225,6.653,26.528,26.528,0,0,1-2.057,6.2,51.117,51.117,0,0,1-4.243,7.553,40.4,40.4,0,0,1-5.657,6.75,16.886,16.886,0,0,1-9.032,4.693,16.139,16.139,0,0,1-9.9-1.671,17.816,17.816,0,0,1-7.617-7.553,16.569,16.569,0,0,1-1.736-10.381,42.6,42.6,0,0,1,1.093-4.918l.546-2.25.064-.161Zm7.424-6.75a42.748,42.748,0,0,0-4.082,7.907l-.546,2.121c-.386,1.575-.8,3.15-1.029,4.6a13.379,13.379,0,0,0,1.382,8.2,14.391,14.391,0,0,0,6.107,6.042,12.563,12.563,0,0,0,7.746,1.318,13.159,13.159,0,0,0,7.135-3.76,37.177,37.177,0,0,0,5.175-6.139,48.72,48.72,0,0,0,3.953-7.071,23.979,23.979,0,0,0,1.8-5.368,17.7,17.7,0,0,0-1.286-10.767,9.4,9.4,0,0,0-3.278-3.76,15.944,15.944,0,0,0-8.774-2.7,14.185,14.185,0,0,0-8.26,2.957,26.61,26.61,0,0,0-6.042,6.428Zm-89.833,12.117c.225-.418.482-.932.739-1.478a40.9,40.9,0,0,1,2.668-4.757,16.485,16.485,0,0,1,2.989-3.343,16.3,16.3,0,0,1,8.839-3.857,14.51,14.51,0,0,1,9.867,2.539,17.23,17.23,0,0,1,3.535,3.214,28.376,28.376,0,0,1,2.186,2.893,18.852,18.852,0,0,1,1.736,3.278,46.213,46.213,0,0,1,2.989,12.085,33.2,33.2,0,0,1-1.157,12.5c-1.8,6.075-4.885,10.06-8.774,12.246-4.275,2.443-9.449,2.668-14.978,1.189a12.884,12.884,0,0,1-5.5-3.086,17.969,17.969,0,0,1-3.953-5.625,35.036,35.036,0,0,1-3.246-13.306,43.444,43.444,0,0,1,1.928-14.142l.032-.193Zm3.921.1-.739,1.414a39.762,39.762,0,0,0-1.7,12.824,31.289,31.289,0,0,0,2.925,11.989,14.316,14.316,0,0,0,3.15,4.532,9.68,9.68,0,0,0,4.018,2.25c4.628,1.221,8.9,1.093,12.31-.836,3.118-1.768,5.592-5.078,7.1-10.189a29.468,29.468,0,0,0,1.029-11.185,40.875,40.875,0,0,0-2.764-11.121,14.747,14.747,0,0,0-1.382-2.636,24.832,24.832,0,0,0-1.9-2.539,14.086,14.086,0,0,0-2.861-2.571,11.165,11.165,0,0,0-7.521-1.961,12.7,12.7,0,0,0-6.878,3.021,13.462,13.462,0,0,0-2.378,2.668,32.894,32.894,0,0,0-2.411,4.339ZM362.869,365.151a22.914,22.914,0,0,1-6.75,9.289,28.712,28.712,0,0,1-10.092,5.078c-1.029.289-2.025.514-3.021.739l-1.35.321a33.229,33.229,0,0,0-8.292,3.246,30.276,30.276,0,0,0-7.007,5.4l-1.993,1.993c-.675.643-1.35,1.286-1.993,1.9a37,37,0,0,1-6.814,5.11,34.117,34.117,0,0,1-7.81,3.439,23.613,23.613,0,0,1-13.21.514,24.578,24.578,0,0,1-11.346-6.942,34.7,34.7,0,0,1-7.778-12.117A32.575,32.575,0,0,1,273.55,369.1c.193-2.571.321-5.143.257-7.617a31.517,31.517,0,0,0-1.061-7.328c-.707-2.636-1.671-5.368-2.6-8.1v-.032a27.815,27.815,0,0,1-1.575-8.292,22.527,22.527,0,0,1,1.318-8.421,28.993,28.993,0,0,1,6.3-10.285,27.7,27.7,0,0,1,9.931-6.525,16.1,16.1,0,0,1,5.432-1.029,32.664,32.664,0,0,1,5.271.418,19,19,0,0,1,6.846,2.539,27.7,27.7,0,0,1,5.432,4.5c1.093,1.189,2.218,2.282,3.343,3.375l2.153,2.153a23.123,23.123,0,0,0,6.814,4.757,25.357,25.357,0,0,0,8.453,2.121,49.216,49.216,0,0,0,5.271.225,28.588,28.588,0,0,0,5.175-.546,21.619,21.619,0,0,1,2.153-.321,20.378,20.378,0,0,1,14.817,4.4,21.67,21.67,0,0,1,7.585,12.6c.129.611.225,1.286.321,1.993a32.405,32.405,0,0,1-.193,7.907,29.155,29.155,0,0,1-2.121,7.553Zm-9,6.557a19.044,19.044,0,0,0,5.721-7.874h.032a28.126,28.126,0,0,0,1.864-6.75,28.827,28.827,0,0,0,.161-7.071,10.767,10.767,0,0,0-.257-1.639,18.111,18.111,0,0,0-6.332-10.51,16.533,16.533,0,0,0-12.246-3.632,13.186,13.186,0,0,0-1.832.257,32.1,32.1,0,0,1-5.785.579,46.313,46.313,0,0,1-5.625-.193,28.987,28.987,0,0,1-9.61-2.443,25.649,25.649,0,0,1-7.874-5.5l-2.121-2.089c-1.157-1.157-2.346-2.314-3.439-3.471a22.379,22.379,0,0,0-4.693-3.921,14.987,14.987,0,0,0-5.56-2.057,26.045,26.045,0,0,0-4.66-.386,12.076,12.076,0,0,0-4.21.8,24.346,24.346,0,0,0-8.678,5.657,25.64,25.64,0,0,0-5.5,9.032,19.1,19.1,0,0,0-1.157,7.135,25.288,25.288,0,0,0,1.414,7.232v.032c.932,2.7,1.864,5.432,2.668,8.324a33.6,33.6,0,0,1,1.189,8.132c.064,2.7-.064,5.368-.257,8a29.272,29.272,0,0,0,1.639,12.535,31.736,31.736,0,0,0,7.007,10.9,21.056,21.056,0,0,0,9.706,5.978,20.362,20.362,0,0,0,11.281-.482,33.185,33.185,0,0,0,7.071-3.086,33.986,33.986,0,0,0,6.139-4.66l1.961-1.864,1.928-1.928a33.158,33.158,0,0,1,7.81-6.01,35.777,35.777,0,0,1,9.192-3.6l1.382-.321c.964-.225,1.928-.45,2.828-.707a25.36,25.36,0,0,0,8.839-4.4Zm-124.963-2.153a19.516,19.516,0,0,1,2.764-4.275,31.869,31.869,0,0,1,3.471-3.439,45.029,45.029,0,0,1,6.46-4.725,34.051,34.051,0,0,1,7.36-3.375,14.786,14.786,0,0,1,10.478.289,15.045,15.045,0,0,1,7.36,7.489,18.727,18.727,0,0,1,1.993,9.257,17.126,17.126,0,0,1-3.375,9,43.678,43.678,0,0,1-6.46,7.264,33.058,33.058,0,0,1-8.164,5.4,23.372,23.372,0,0,1-4.05,1.511,23.123,23.123,0,0,1-4.082.868c-.129,0-.257.032-.354.032a14,14,0,0,1-10.253-3.085,14.535,14.535,0,0,1-5.046-9.514c0-.129-.032-.257-.032-.386a25.236,25.236,0,0,1,.193-6.235,24.047,24.047,0,0,1,1.7-6.01l.032-.064Zm5.464-1.993A15.1,15.1,0,0,0,232.12,371a21.035,21.035,0,0,0-1.446,5.175,20,20,0,0,0-.161,5.367l.032.321a10.828,10.828,0,0,0,3.76,7.167,10.38,10.38,0,0,0,7.649,2.282l.289-.032a22.212,22.212,0,0,0,3.535-.707,23.18,23.18,0,0,0,3.5-1.35,29.84,29.84,0,0,0,7.328-4.821,40.755,40.755,0,0,0,5.946-6.685,13.482,13.482,0,0,0,2.7-7.135,15.271,15.271,0,0,0-1.639-7.553,11.485,11.485,0,0,0-5.592-5.753,11.342,11.342,0,0,0-8-.161,30.833,30.833,0,0,0-6.621,3.021,42.8,42.8,0,0,0-5.946,4.371,30.829,30.829,0,0,0-3.086,3.053Zm57.436,54.575a23.6,23.6,0,0,1,1.736-4.628,20.448,20.448,0,0,1,5.625-6.814,19.261,19.261,0,0,1,3.728-2.186,15.966,15.966,0,0,1,3.953-1.093,18.6,18.6,0,0,1,10.446,1.543,15.8,15.8,0,0,1,7.971,8.035,16.126,16.126,0,0,1,1.253,4.435,33.634,33.634,0,0,1-8.132,27.9,16.005,16.005,0,0,1-7.714,5.078,17.382,17.382,0,0,1-9.417-.1,17.64,17.64,0,0,1-7.714-4.178,14.316,14.316,0,0,1-4.018-7.264,26.682,26.682,0,0,1-.546-4.821,29.53,29.53,0,0,1,.354-5.078,96,96,0,0,1,2.186-9.674l.289-1.157Zm4.918-3.021a19.379,19.379,0,0,0-1.511,3.921l-.289,1.157c-.8,3.118-1.639,6.235-2.121,9.321a25.668,25.668,0,0,0-.289,4.468,21.5,21.5,0,0,0,.482,4.114,10.466,10.466,0,0,0,2.989,5.464A15.457,15.457,0,0,0,309.708,451a12.173,12.173,0,0,0,6.01-3.985,29.973,29.973,0,0,0,7.3-25.1,14.351,14.351,0,0,0-.964-3.5,12.593,12.593,0,0,0-6.235-6.267,14.964,14.964,0,0,0-8.453-1.221,11.551,11.551,0,0,0-3.053.836,14.788,14.788,0,0,0-5.4,4.082A14.95,14.95,0,0,0,296.723,419.115Zm-14.078,2.121a45.9,45.9,0,0,1-5.142,8.357,30.456,30.456,0,0,1-7.425,6.717,17.666,17.666,0,0,1-10.606,2.8,19.015,19.015,0,0,1-10.446-4.114,12.736,12.736,0,0,1-4.114-5.464,21.62,21.62,0,0,1-.546-13.081,26.89,26.89,0,0,1,2.571-6.01,51.453,51.453,0,0,1,4.821-7.232,41.9,41.9,0,0,1,6.171-6.235,16.9,16.9,0,0,1,9.353-3.953,16.035,16.035,0,0,1,9.771,2.475,17.7,17.7,0,0,1,6.975,8.1,16.817,16.817,0,0,1,.932,10.51c-.418,1.671-.964,3.246-1.511,4.789a16.756,16.756,0,0,1-.8,2.346Zm-7.939,6.139a41.251,41.251,0,0,0,4.725-7.585l.675-2.025c.514-1.511,1.028-3.021,1.414-4.5a13.348,13.348,0,0,0-.739-8.292,14.179,14.179,0,0,0-5.592-6.492,12.431,12.431,0,0,0-7.617-1.928,13.388,13.388,0,0,0-7.424,3.15,37.8,37.8,0,0,0-5.625,5.721,45.352,45.352,0,0,0-4.5,6.717,24.08,24.08,0,0,0-2.25,5.239,17.409,17.409,0,0,0-.611,5.5,16.92,16.92,0,0,0,1.028,5.335,9.422,9.422,0,0,0,2.989,3.985A15.493,15.493,0,0,0,259.7,435.6a14.366,14.366,0,0,0,8.485-2.282,26.3,26.3,0,0,0,6.525-5.946Zm90.54-4.918c-.289.45-.579.932-.9,1.446a38.2,38.2,0,0,1-3.021,4.532,16.379,16.379,0,0,1-3.246,3.086,16.213,16.213,0,0,1-9.128,3.15,14.7,14.7,0,0,1-9.61-3.31,18.071,18.071,0,0,1-3.278-3.5A27.42,27.42,0,0,1,334.1,424.8a19.708,19.708,0,0,1-1.446-3.407,43.8,43.8,0,0,1-1.993-12.31,32.966,32.966,0,0,1,2.121-12.342c2.282-5.914,5.657-9.642,9.707-11.539,4.468-2.057,9.642-1.864,15.042.032a13.055,13.055,0,0,1,5.239,3.535,17.317,17.317,0,0,1,3.471,5.914,34.091,34.091,0,0,1,2.186,13.531,42.9,42.9,0,0,1-3.021,13.917l-.064.161-.1.161Zm-3.921-.386.836-1.35a39.552,39.552,0,0,0,2.732-12.631,31.458,31.458,0,0,0-1.961-12.181,14.474,14.474,0,0,0-2.764-4.757,9.372,9.372,0,0,0-3.825-2.571c-4.532-1.607-8.807-1.8-12.342-.161-3.246,1.511-5.978,4.6-7.907,9.578a30.046,30.046,0,0,0-1.928,11.056,42.066,42.066,0,0,0,1.864,11.313,15.934,15.934,0,0,0,1.189,2.764,25.1,25.1,0,0,0,1.7,2.668,13.79,13.79,0,0,0,2.636,2.8,11.026,11.026,0,0,0,7.328,2.539,12.5,12.5,0,0,0,7.1-2.475,13.355,13.355,0,0,0,2.6-2.443A39.837,39.837,0,0,0,361.326,422.072ZM45.029,647.7a22.285,22.285,0,0,1,6.01-9.739,28.746,28.746,0,0,1,9.61-5.882c1.125-.418,2.057-.707,2.989-1l1.318-.418a32.984,32.984,0,0,0,8-3.889,30.881,30.881,0,0,0,6.557-5.946c.546-.643,1.125-1.382,1.8-2.121.418-.482,1.093-1.221,1.864-2.089a37.646,37.646,0,0,1,6.364-5.625,34.272,34.272,0,0,1,7.489-4.05,23.772,23.772,0,0,1,13.146-1.575,24.165,24.165,0,0,1,11.86,6.01,35.325,35.325,0,0,1,8.742,11.442,32.724,32.724,0,0,1,2.957,13.853,75.554,75.554,0,0,0,.386,7.617,29.514,29.514,0,0,0,1.607,7.2c.964,2.668,2.089,5.271,3.246,7.874v.032a27.956,27.956,0,0,1,2.25,8.132,22,22,0,0,1-.675,8.517,28.732,28.732,0,0,1-5.432,10.735,27.661,27.661,0,0,1-9.385,7.3,15.993,15.993,0,0,1-5.3,1.479,29.229,29.229,0,0,1-5.3-.032,18.6,18.6,0,0,1-7.039-1.961,27.019,27.019,0,0,1-5.753-4.05c-1.061-.964-2.346-2.025-3.632-3.118l-2.314-1.928a22.134,22.134,0,0,0-7.167-4.243,25.173,25.173,0,0,0-8.582-1.414A47.859,47.859,0,0,0,75.37,679a31.749,31.749,0,0,0-5.11.964q-1.061.289-2.121.482A20.14,20.14,0,0,1,53,677.237a21.6,21.6,0,0,1-8.582-11.924c-.161-.643-.321-1.286-.45-1.961A31.774,31.774,0,0,1,45.029,647.7Zm8.421-7.2a19.316,19.316,0,0,0-5.046,8.292l-.032.032a28.389,28.389,0,0,0-1.35,6.846,30.7,30.7,0,0,0,.418,7.039,15.116,15.116,0,0,0,.386,1.639,17.972,17.972,0,0,0,7.167,9.964,16.8,16.8,0,0,0,12.5,2.668c.579-.1,1.189-.257,1.8-.418a31.989,31.989,0,0,1,5.721-1.061,54.844,54.844,0,0,1,5.625-.225,28.868,28.868,0,0,1,9.771,1.639,25.9,25.9,0,0,1,8.292,4.853l2.25,1.928c1.189,1,2.378,1.993,3.728,3.182a23.521,23.521,0,0,0,4.982,3.535,15.74,15.74,0,0,0,5.721,1.607,25.062,25.062,0,0,0,4.66,0,12.08,12.08,0,0,0,4.146-1.125,24.251,24.251,0,0,0,8.2-6.364,25.066,25.066,0,0,0,4.757-9.417,18.94,18.94,0,0,0,.579-7.2,24.007,24.007,0,0,0-1.993-7.1v-.064c-1.157-2.636-2.314-5.3-3.311-8.035a35.438,35.438,0,0,1-1.832-8.035c-.289-2.636-.354-5.3-.386-8a29.047,29.047,0,0,0-2.636-12.374,31.351,31.351,0,0,0-7.874-10.253,21.014,21.014,0,0,0-10.124-5.207,20.46,20.46,0,0,0-11.217,1.382,32.277,32.277,0,0,0-6.814,3.664A34.335,34.335,0,0,0,85.783,619c-.45.482-1.029,1.125-1.8,2.025-.546.611-1.125,1.286-1.736,2.057a34.889,34.889,0,0,1-7.328,6.653,37.689,37.689,0,0,1-8.871,4.275l-1.35.45c-1,.321-1.993.643-2.8.932a25.637,25.637,0,0,0-8.453,5.11Zm124.77-7.842a18.2,18.2,0,0,1-2.443,4.468,31.352,31.352,0,0,1-3.15,3.7,44.684,44.684,0,0,1-6.075,5.239,35.324,35.324,0,0,1-7.071,3.953,14.794,14.794,0,0,1-10.446.546,14.944,14.944,0,0,1-7.971-6.878,18.686,18.686,0,0,1-2.7-9.064A16.792,16.792,0,0,1,141,625.394a42.115,42.115,0,0,1,5.85-7.778,33.955,33.955,0,0,1,7.714-6.042,25.769,25.769,0,0,1,3.921-1.832,23.3,23.3,0,0,1,3.985-1.157c.064,0,.289-.064.354-.064a13.994,13.994,0,0,1,10.478,2.25,14.489,14.489,0,0,1,5.785,9.064l.064.354a25.375,25.375,0,0,1-.9,12.406l-.032.064Zm-5.3,2.411a14.817,14.817,0,0,0,1.961-3.568,22.176,22.176,0,0,0,1.061-5.3,21.857,21.857,0,0,0-.289-5.4l-.032-.289a11,11,0,0,0-4.371-6.846,10.323,10.323,0,0,0-7.81-1.671l-.257.064a21.435,21.435,0,0,0-3.471,1,27.4,27.4,0,0,0-3.407,1.607,30.769,30.769,0,0,0-6.91,5.4,40.106,40.106,0,0,0-5.367,7.167,13.544,13.544,0,0,0-2.153,7.328,15.322,15.322,0,0,0,2.282,7.36,10.553,10.553,0,0,0,13.981,4.821A32.253,32.253,0,0,0,164.5,643.2a42.05,42.05,0,0,0,5.592-4.853A29.947,29.947,0,0,0,172.917,635.068ZM111.3,585.25a22.948,22.948,0,0,1-1.382,4.757,20.37,20.37,0,0,1-2.314,4.178,17.673,17.673,0,0,1-2.732,3.053,16.9,16.9,0,0,1-3.535,2.475,13.813,13.813,0,0,1-3.857,1.414,18.584,18.584,0,0,1-10.542-.707,15.79,15.79,0,0,1-8.582-7.36,16.363,16.363,0,0,1-1.607-4.307,34.442,34.442,0,0,1-.289-14.913,34.912,34.912,0,0,1,6.171-13.563,16.106,16.106,0,0,1,7.264-5.689,17.746,17.746,0,0,1,9.417-.643,17.472,17.472,0,0,1,8.035,3.568,14.025,14.025,0,0,1,4.564,6.91,25.434,25.434,0,0,1,.932,4.757,26.879,26.879,0,0,1,.064,5.078c-.257,3.343-.836,6.589-1.382,9.8l-.225,1.189Zm-4.628,3.407a21.336,21.336,0,0,0,1.157-4.018l.193-1.157a88.559,88.559,0,0,0,1.35-9.482,23.056,23.056,0,0,0-.032-4.468,24.145,24.145,0,0,0-.8-4.082,10.489,10.489,0,0,0-3.439-5.207,13.626,13.626,0,0,0-6.428-2.8,13.986,13.986,0,0,0-7.521.45,12.63,12.63,0,0,0-5.657,4.468,30.687,30.687,0,0,0-5.56,12.181,31.023,31.023,0,0,0,.257,13.4,13.631,13.631,0,0,0,1.286,3.439,12.463,12.463,0,0,0,6.717,5.753,15.184,15.184,0,0,0,8.517.546,11.213,11.213,0,0,0,2.957-1.093A13.1,13.1,0,0,0,102.5,594.6a13.633,13.633,0,0,0,2.25-2.475A18.354,18.354,0,0,0,106.675,588.657Zm13.82-3.246a44.6,44.6,0,0,1,4.5-8.71,29.4,29.4,0,0,1,6.846-7.3,17.517,17.517,0,0,1,10.349-3.664,19.011,19.011,0,0,1,10.735,3.278,12.6,12.6,0,0,1,4.532,5.143,19.729,19.729,0,0,1,1.8,6.332,20.013,20.013,0,0,1-.225,6.653,26.528,26.528,0,0,1-2.057,6.2,51.125,51.125,0,0,1-4.243,7.553,43.233,43.233,0,0,1-5.625,6.75,16.824,16.824,0,0,1-9.032,4.66,15.976,15.976,0,0,1-9.931-1.671,17.746,17.746,0,0,1-7.617-7.521,16.828,16.828,0,0,1-1.736-10.381c.289-1.768.675-3.343,1.093-4.95l.546-2.218.064-.161Zm7.424-6.75a42.744,42.744,0,0,0-4.082,7.907l-.514,2.121c-.418,1.575-.8,3.15-1.061,4.6a13.17,13.17,0,0,0,1.414,8.2,14.313,14.313,0,0,0,6.075,6.042,12.854,12.854,0,0,0,7.778,1.318,13.375,13.375,0,0,0,7.135-3.76,38.591,38.591,0,0,0,5.143-6.139,50.473,50.473,0,0,0,3.953-7.071,24.23,24.23,0,0,0,1.8-5.4,16.766,16.766,0,0,0,.193-5.528,16.258,16.258,0,0,0-1.478-5.207,8.965,8.965,0,0,0-3.278-3.76,15.686,15.686,0,0,0-8.774-2.7,14.185,14.185,0,0,0-8.26,2.957,26.608,26.608,0,0,0-6.042,6.428ZM38.087,590.779c.225-.418.482-.932.739-1.479a43.121,43.121,0,0,1,2.668-4.757,16.639,16.639,0,0,1,3.021-3.343,16.1,16.1,0,0,1,8.807-3.857,14.51,14.51,0,0,1,9.867,2.539,17.363,17.363,0,0,1,3.568,3.214,28.158,28.158,0,0,1,2.153,2.893,16.892,16.892,0,0,1,1.736,3.278,44.391,44.391,0,0,1,2.989,12.085,32.972,32.972,0,0,1-1.157,12.471c-1.8,6.107-4.853,10.06-8.742,12.278-4.275,2.443-9.482,2.668-14.978,1.189a12.814,12.814,0,0,1-5.528-3.085,18.269,18.269,0,0,1-3.953-5.657,34.75,34.75,0,0,1-3.246-13.306,43.26,43.26,0,0,1,1.928-14.11l.032-.193.1-.161Zm3.921.1-.707,1.414a38.963,38.963,0,0,0-1.736,12.824A31.134,31.134,0,0,0,42.49,617.07a15.177,15.177,0,0,0,3.15,4.564,9.472,9.472,0,0,0,4.018,2.218c4.66,1.253,8.9,1.125,12.31-.8,3.118-1.768,5.592-5.078,7.1-10.189a29.489,29.489,0,0,0,1.061-11.185,40.947,40.947,0,0,0-2.8-11.121,16.2,16.2,0,0,0-1.382-2.668,23.329,23.329,0,0,0-1.9-2.507,14.289,14.289,0,0,0-2.861-2.6,11.134,11.134,0,0,0-7.521-1.928,12.7,12.7,0,0,0-6.878,3.021,13.463,13.463,0,0,0-2.378,2.668,37.055,37.055,0,0,0-2.411,4.339Zm284.735,6.075a22.472,22.472,0,0,1,6.01-9.739,28.168,28.168,0,0,1,9.61-5.85,30.244,30.244,0,0,1,2.989-1.029l1.318-.418a34.108,34.108,0,0,0,8-3.857,31.932,31.932,0,0,0,6.557-5.978c.514-.643,1.125-1.35,1.8-2.121.418-.482,1.061-1.221,1.864-2.089a36.441,36.441,0,0,1,6.364-5.625,37.226,37.226,0,0,1,7.489-4.05,23.693,23.693,0,0,1,13.113-1.575,24.4,24.4,0,0,1,11.892,6.01,35.1,35.1,0,0,1,8.742,11.474,32.958,32.958,0,0,1,2.957,13.82,75.518,75.518,0,0,0,.354,7.617,30.777,30.777,0,0,0,1.639,7.2c.964,2.668,2.089,5.271,3.214,7.874l.032.064a27.683,27.683,0,0,1,2.25,8.132,21.887,21.887,0,0,1-.675,8.485,28.547,28.547,0,0,1-5.464,10.735,27.148,27.148,0,0,1-9.353,7.3,15.956,15.956,0,0,1-5.335,1.478,28.87,28.87,0,0,1-5.271,0,19.236,19.236,0,0,1-7.039-1.993,26.233,26.233,0,0,1-5.753-4.05c-1.093-.964-2.346-2.025-3.632-3.118l-2.314-1.928a22.037,22.037,0,0,0-7.167-4.21,25.322,25.322,0,0,0-8.582-1.446,47.831,47.831,0,0,0-5.271.225,27.512,27.512,0,0,0-5.11.932q-1.061.289-2.121.482a20.107,20.107,0,0,1-15.138-3.214,21.6,21.6,0,0,1-8.582-11.924c-.161-.611-.321-1.286-.45-1.961a31.774,31.774,0,0,1,1.061-15.653Zm8.421-7.2a19.316,19.316,0,0,0-5.046,8.292l-.032.032a28.7,28.7,0,0,0-1.35,6.846,30.488,30.488,0,0,0,.418,7.039,15.116,15.116,0,0,0,.386,1.639,17.972,17.972,0,0,0,7.167,9.964,16.623,16.623,0,0,0,12.5,2.668,13.148,13.148,0,0,0,1.8-.418,35.1,35.1,0,0,1,5.721-1.061,54.481,54.481,0,0,1,5.625-.225,29,29,0,0,1,9.771,1.639,26,26,0,0,1,8.292,4.885l2.25,1.9c1.189,1,2.378,1.993,3.728,3.182a23.517,23.517,0,0,0,4.982,3.536,15.134,15.134,0,0,0,5.721,1.607,28.3,28.3,0,0,0,4.66.032,12.509,12.509,0,0,0,4.114-1.157,24.066,24.066,0,0,0,8.228-6.364,24.83,24.83,0,0,0,4.757-9.417,18.825,18.825,0,0,0,.578-7.167,25.218,25.218,0,0,0-1.993-7.135V610c-1.157-2.636-2.314-5.3-3.343-8.035a35.359,35.359,0,0,1-1.8-8.035c-.289-2.636-.354-5.3-.386-7.971a29.426,29.426,0,0,0-2.636-12.374,31.133,31.133,0,0,0-7.874-10.285,21.015,21.015,0,0,0-10.124-5.207,20.459,20.459,0,0,0-11.217,1.382,32.28,32.28,0,0,0-6.814,3.664,34.341,34.341,0,0,0-5.753,5.11c-.45.514-1.029,1.125-1.8,2.025-.546.611-1.125,1.318-1.768,2.057a33.961,33.961,0,0,1-7.3,6.653,37.785,37.785,0,0,1-8.871,4.307l-1.35.418c-1,.322-1.993.643-2.8.932a25.312,25.312,0,0,0-8.453,5.11Zm124.77-7.842a18.2,18.2,0,0,1-2.443,4.468,31.357,31.357,0,0,1-3.15,3.7,44.684,44.684,0,0,1-6.075,5.239,35.32,35.32,0,0,1-7.071,3.953,14.7,14.7,0,0,1-10.478.546,14.861,14.861,0,0,1-7.939-6.878,18.685,18.685,0,0,1-2.7-9.064,17.02,17.02,0,0,1,2.6-9.224,43.761,43.761,0,0,1,5.882-7.778,34.871,34.871,0,0,1,7.714-6.042,29.258,29.258,0,0,1,3.921-1.832,23.3,23.3,0,0,1,3.986-1.157c.064,0,.289-.064.354-.064a13.883,13.883,0,0,1,10.446,2.25,14.232,14.232,0,0,1,5.785,9.064l.1.386a27.073,27.073,0,0,1,.321,6.235,25.112,25.112,0,0,1-1.253,6.139v.064Zm-5.3,2.411a14.82,14.82,0,0,0,1.961-3.568,21.869,21.869,0,0,0,1.061-5.3,21.6,21.6,0,0,0-.289-5.367l-.064-.321a10.827,10.827,0,0,0-4.339-6.846,10.354,10.354,0,0,0-7.81-1.671l-.257.064a21.457,21.457,0,0,0-3.471,1,25.4,25.4,0,0,0-3.407,1.607,30,30,0,0,0-6.91,5.432,41.049,41.049,0,0,0-5.368,7.135,13.545,13.545,0,0,0-2.153,7.328,15.847,15.847,0,0,0,2.25,7.392,11.459,11.459,0,0,0,6.042,5.271,11.34,11.34,0,0,0,7.971-.482,30.7,30.7,0,0,0,6.364-3.536A39.84,39.84,0,0,0,451.8,587.6,29.941,29.941,0,0,0,454.63,584.318ZM393.017,534.5a22.947,22.947,0,0,1-1.382,4.757,20.373,20.373,0,0,1-2.314,4.178,18.316,18.316,0,0,1-6.267,5.528,14.949,14.949,0,0,1-3.857,1.446,18.869,18.869,0,0,1-10.542-.707A16.1,16.1,0,0,1,358.465,538a34.44,34.44,0,0,1-.289-14.913,34.913,34.913,0,0,1,6.171-13.563,15.863,15.863,0,0,1,7.264-5.657,17.127,17.127,0,0,1,9.417-.643,17.582,17.582,0,0,1,8.035,3.535,14.171,14.171,0,0,1,4.564,6.91,26.487,26.487,0,0,1,.932,4.757,29.859,29.859,0,0,1,.064,5.078,99.224,99.224,0,0,1-1.414,9.835Zm-4.66,3.407a16.553,16.553,0,0,0,1.157-4.018l.225-1.157c.546-3.182,1.125-6.332,1.35-9.482a25.923,25.923,0,0,0-.032-4.468,23.773,23.773,0,0,0-.8-4.05,10.655,10.655,0,0,0-3.439-5.239,13.951,13.951,0,0,0-6.428-2.8,13.671,13.671,0,0,0-7.521.482,12.174,12.174,0,0,0-5.657,4.435,30.236,30.236,0,0,0-5.3,25.616,13.864,13.864,0,0,0,1.286,3.407,12.332,12.332,0,0,0,6.717,5.753,14.9,14.9,0,0,0,8.517.546,12.412,12.412,0,0,0,2.957-1.061,15.337,15.337,0,0,0,2.828-1.993,15.862,15.862,0,0,0,4.146-5.978Zm13.853-3.246a47.312,47.312,0,0,1,4.468-8.71,30.747,30.747,0,0,1,6.878-7.3,17.678,17.678,0,0,1,10.317-3.632,19,19,0,0,1,10.767,3.246,12.6,12.6,0,0,1,4.532,5.143,19.727,19.727,0,0,1,1.8,6.332,21.107,21.107,0,0,1-.225,6.685,26.79,26.79,0,0,1-2.057,6.171,53.146,53.146,0,0,1-4.243,7.585,42.994,42.994,0,0,1-5.625,6.717,17.112,17.112,0,0,1-9.032,4.693,16.2,16.2,0,0,1-9.931-1.671,17.816,17.816,0,0,1-7.617-7.553,16.79,16.79,0,0,1-1.736-10.381c.289-1.768.675-3.343,1.093-4.917l.546-2.25.064-.161Zm7.425-6.75a42.737,42.737,0,0,0-4.082,7.907l-.514,2.121c-.418,1.575-.8,3.15-1.061,4.6a13.17,13.17,0,0,0,1.414,8.2,14.312,14.312,0,0,0,6.075,6.042,12.563,12.563,0,0,0,7.746,1.318,13.2,13.2,0,0,0,7.135-3.728,37.384,37.384,0,0,0,5.175-6.171,48.729,48.729,0,0,0,3.953-7.071,23.98,23.98,0,0,0,1.8-5.368,16.959,16.959,0,0,0,.193-5.56,16.259,16.259,0,0,0-1.478-5.207,9.4,9.4,0,0,0-3.278-3.76,15.945,15.945,0,0,0-8.774-2.7,14.185,14.185,0,0,0-8.26,2.957,26.609,26.609,0,0,0-6.042,6.428ZM319.8,540.06c.225-.45.482-.964.739-1.511a40.9,40.9,0,0,1,2.668-4.757,16.485,16.485,0,0,1,2.989-3.343,16.3,16.3,0,0,1,8.839-3.857,14.51,14.51,0,0,1,9.867,2.539,17.362,17.362,0,0,1,3.568,3.214,28.125,28.125,0,0,1,2.153,2.893,18.845,18.845,0,0,1,1.736,3.278,44.9,44.9,0,0,1,2.989,12.117,33.089,33.089,0,0,1-1.157,12.471c-1.8,6.075-4.853,10.06-8.742,12.246-4.307,2.443-9.482,2.668-15.01,1.189a12.883,12.883,0,0,1-5.5-3.085,17.97,17.97,0,0,1-3.953-5.625,35.035,35.035,0,0,1-3.246-13.306,43.447,43.447,0,0,1,1.928-14.142l.032-.193Zm3.921.064-.707,1.414a38.962,38.962,0,0,0-1.736,12.824,31.287,31.287,0,0,0,2.925,11.988,15.431,15.431,0,0,0,3.15,4.532,9.528,9.528,0,0,0,4.018,2.25c4.66,1.221,8.9,1.093,12.31-.836,3.118-1.768,5.592-5.078,7.1-10.189a29.468,29.468,0,0,0,1.028-11.185,39.73,39.73,0,0,0-2.764-11.121,14.749,14.749,0,0,0-1.382-2.636,24.833,24.833,0,0,0-1.9-2.539,14.087,14.087,0,0,0-2.861-2.571,11.165,11.165,0,0,0-7.521-1.961,12.7,12.7,0,0,0-6.878,3.021,13.464,13.464,0,0,0-2.378,2.668,35.071,35.071,0,0,0-2.411,4.339ZM478.929,406.291c.643-20.088-6.075-32.526-15.556-38.022a26.488,26.488,0,0,0-20.216-2.411c-7.167,1.832-14.271,6.3-20.088,13.21-13.113,15.524-19.638,43.294-6.01,81.316l.771,2.218c1.157,3.246,1.7,4.885,2.6,5.721.868.8,2.443,1.286,5.625,2.218l2.443.707c42.522,12.856,70.228,8.324,84.5-2.411a28.131,28.131,0,0,0,10.285-13.821,23.06,23.06,0,0,0-.482-15.2c-3.825-10.028-14.592-18.706-31.787-21.374a60.283,60.283,0,0,0-7.36-.643c-2.121-.064-3.246-.1-4.21-1-1.125-1.125-1.029-2.507-.8-5.528.1-1.318.225-2.989.289-4.982ZM465.14,365.215c10.542,6.107,18,19.606,17.292,41.172-.064,2.25-.193,3.889-.257,5.143-.161,1.9-.289,2.7-.257,2.732s.611-.032,1.8,0a63.329,63.329,0,0,1,7.842.675c18.577,2.893,30.309,12.5,34.551,23.591a26.523,26.523,0,0,1,.546,17.549,31.859,31.859,0,0,1-11.539,15.588c-15.074,11.314-43.872,16.2-87.648,2.957l-2.411-.707c-3.728-1.093-5.592-1.639-7.071-3.053s-2.153-3.311-3.5-7.1l-.771-2.186c-14.11-39.4-7.167-68.428,6.653-84.787a43.068,43.068,0,0,1,21.92-14.367c7.971-2.025,16.038-1.189,22.852,2.8ZM555.1,529.293c-13.6-14.785-27.095-18.931-37.733-16.2a26.678,26.678,0,0,0-16.1,12.438c-3.825,6.332-5.753,14.528-5.046,23.527,1.543,20.249,16.327,44.643,52.711,62.192l2.121,1.029c3.086,1.511,4.628,2.282,5.85,2.25,1.189,0,2.668-.8,5.56-2.346l2.25-1.189c39.34-20.667,55.893-43.326,58.56-60.971a28.217,28.217,0,0,0-2.378-17.1,22.971,22.971,0,0,0-10.992-10.51c-9.739-4.467-23.495-3.118-37.637,7.071a53.3,53.3,0,0,0-5.721,4.725c-1.511,1.414-2.346,2.186-3.664,2.186h-.032c-1.575,0-2.475-1.029-4.435-3.343-.8-.964-1.864-2.218-3.31-3.76Zm-38.6-19.638c11.8-3.021,26.58,1.35,41.2,17.26,1.446,1.575,2.539,2.828,3.407,3.825,1.221,1.478,1.671,2.153,1.736,2.153s.418-.45,1.318-1.286a55.435,55.435,0,0,1,6.042-4.982c15.267-10.992,30.373-12.374,41.172-7.425a26.622,26.622,0,0,1,12.7,12.149,31.771,31.771,0,0,1,2.7,19.188c-2.828,18.609-19.927,42.3-60.425,63.574l-2.218,1.189c-3.407,1.8-5.142,2.732-7.167,2.764-2.057.032-3.857-.836-7.457-2.6l-2.121-1.029c-37.7-18.192-53.1-43.776-54.7-65.117-.739-9.771,1.382-18.674,5.56-25.616A30.121,30.121,0,0,1,516.5,509.655Zm81.348-135.7c1.639,1.446,3.471.1,5.367-1.286l.836-.643a238.41,238.41,0,0,1,20.442-12.921c7.039-3.985,14.174-7.714,21.277-11.346a4.541,4.541,0,0,0,1.961-1.511,4.421,4.421,0,0,0,.161-2.507l-.129-1a24.219,24.219,0,0,1-.257-4.082c.739-13.6,8.678-22.338,17.935-25.938a26.476,26.476,0,0,1,13.756-1.511,20.176,20.176,0,0,1,11.764,6.2c5.432,5.914,7.521,15.878,2.411,29.923-.161.418-.482.257-.353.418.064.161.1-.161.514-.1h.064c1.832.289,3.7.611,5.5,1.061a22.933,22.933,0,0,1,16.649,16.3,26.868,26.868,0,0,1,.675,11.314,25.386,25.386,0,0,1-4.275,10.639c-4.6,6.4-12.567,10.767-24.009,10.028H688.1a20.24,20.24,0,0,1-6.557-1.607,18.385,18.385,0,0,1-5.593-3.921,5.968,5.968,0,0,0-.868-.707,2.07,2.07,0,0,0-.739-.321h0c-.675-.193-7.971,3.471-16.745,8.1-13.467,7.135-29.987,16.552-32.912,18.609l-.1.1a1.8,1.8,0,0,0,.128.707,23.116,23.116,0,0,1,1.093,8.035,22.023,22.023,0,0,1-1.768,7.842,24.641,24.641,0,0,1-19.863,15.074,25.494,25.494,0,0,1-11.024-.964,22.84,22.84,0,0,1-9.449-5.753c-5.432-5.5-8.228-14.142-5.367-25.68.193-.771.354-1.061.321-1.093s-.418-.032-1.253-.129a22.461,22.461,0,0,1-8.292-2.668,24.235,24.235,0,0,1-6.75-5.817c-6.589-8.164-7.521-17.645-4.789-25.455a24.441,24.441,0,0,1,5.914-9.321,21.616,21.616,0,0,1,9.449-5.528c7.264-2.057,16.1-.354,24.909,7.457Zm7.424,1.543c-3.053,2.282-5.978,4.435-9.771,1.093-7.778-6.878-15.428-8.453-21.631-6.685a17.988,17.988,0,0,0-7.907,4.66,20.844,20.844,0,0,0-5.046,7.971,22.771,22.771,0,0,0,4.178,22.049,20.426,20.426,0,0,0,5.753,4.95,17.83,17.83,0,0,0,6.975,2.25c1.864.225,2.989.546,3.7,1.543.739,1,.707,2.153.257,4.018-2.507,10.189-.161,17.71,4.435,22.37a19.412,19.412,0,0,0,8,4.853,22.267,22.267,0,0,0,9.546.836A21.146,21.146,0,0,0,620.8,432.453a19.417,19.417,0,0,0,1.511-6.589,21.123,21.123,0,0,0-.964-6.846,5.063,5.063,0,0,1-.225-2.378,3.408,3.408,0,0,1,1.511-2.346c3.053-2.186,19.767-11.731,33.33-18.867,9.482-5.014,17.645-8.871,19.284-8.421a6.293,6.293,0,0,1,1.7.771A8.1,8.1,0,0,1,678.458,389a14.862,14.862,0,0,0,4.5,3.15,16.64,16.64,0,0,0,5.4,1.318c10.06.643,16.97-3.085,20.891-8.549a21.428,21.428,0,0,0,3.664-9.1,23.092,23.092,0,0,0-.578-9.835,19.454,19.454,0,0,0-14.11-13.82c-1.736-.45-3.471-.739-5.207-1.029h-.064a3.8,3.8,0,0,1-2.989-1.575c-.546-.932-.482-1.961.064-3.407,4.628-12.631,2.957-21.341-1.671-26.355a16.527,16.527,0,0,0-9.739-5.078,22.915,22.915,0,0,0-11.924,1.318c-8.067,3.118-15.01,10.8-15.653,22.788a19.161,19.161,0,0,0,.257,3.5l.1,1a7.427,7.427,0,0,1-.546,4.6,7.206,7.206,0,0,1-3.471,2.957c-7.071,3.632-14.174,7.36-21.116,11.314a223.354,223.354,0,0,0-20.12,12.7l-.868.611ZM398.738,228.1c-.932,1.993.836,3.343,2.7,4.789l.868.643a229.721,229.721,0,0,1,18.1,16.038c5.721,5.56,11.314,11.442,16.842,17.26a4.48,4.48,0,0,0,1.993,1.478,4.348,4.348,0,0,0,2.443-.546l.932-.386A21.084,21.084,0,0,1,446.467,266c13.242-3.118,23.848,2.089,29.891,9.964a26.358,26.358,0,0,1,5.271,12.824,20.058,20.058,0,0,1-2.668,13.017c-4.178,6.878-13.146,11.635-28.091,10.639-.418-.032-.353-.386-.482-.225-.129.129.193.032.257.482v.032c.225,1.8.45,3.632.514,5.592a22.879,22.879,0,0,1-11.024,20.506,26.307,26.307,0,0,1-10.671,3.825,25.034,25.034,0,0,1-11.41-1.157c-7.424-2.636-13.853-9.064-16.3-20.281h0a19.225,19.225,0,0,1-.289-6.75,17.511,17.511,0,0,1,2.186-6.46,8.089,8.089,0,0,0,.45-1.061,2.21,2.21,0,0,0,.1-.771c0-.707-5.528-6.685-12.471-13.821-10.574-10.96-24.2-24.17-27.03-26.42l-.1-.064a1.314,1.314,0,0,0-.643.321,22.986,22.986,0,0,1-7.457,3.278,21.957,21.957,0,0,1-7.971.482A24.611,24.611,0,0,1,328.51,255.1a25.443,25.443,0,0,1-2.153-10.864,23.154,23.154,0,0,1,2.861-10.7c3.793-6.717,11.314-11.828,23.206-12.31.8-.032,1.093.1,1.125.032.032-.032-.1-.418-.225-1.253a21.952,21.952,0,0,1,.257-8.71,23.369,23.369,0,0,1,3.7-8.1c6.01-8.614,14.881-12.149,23.109-11.667a24.67,24.67,0,0,1,10.606,3.021,21.807,21.807,0,0,1,7.939,7.553c4.018,6.4,4.821,15.363-.193,26Zm.579,7.585c-3.053-2.314-5.946-4.532-3.793-9.064,4.468-9.417,3.825-17.2.418-22.659a18.465,18.465,0,0,0-6.685-6.3,20.556,20.556,0,0,0-9.064-2.6c-7.135-.418-14.785,2.668-20.024,10.156a19.888,19.888,0,0,0-3.15,6.878,18.654,18.654,0,0,0-.225,7.328c.321,1.864.321,3.021-.45,3.985-.739,1-1.864,1.253-3.793,1.35-10.478.418-17.035,4.757-20.249,10.51a19.348,19.348,0,0,0-2.411,9.032,22.166,22.166,0,0,0,1.864,9.385,21.1,21.1,0,0,0,17.163,12.76,19.784,19.784,0,0,0,6.782-.386,20.792,20.792,0,0,0,6.3-2.828,5.072,5.072,0,0,1,2.218-.9,3.545,3.545,0,0,1,2.668.836c2.925,2.314,16.745,15.685,27.416,26.741,7.424,7.682,13.4,14.463,13.435,16.2a6.006,6.006,0,0,1-.257,1.832,8.848,8.848,0,0,1-.739,1.768,14.067,14.067,0,0,0-1.768,5.239,16.13,16.13,0,0,0,.225,5.528c2.153,9.835,7.682,15.428,14.045,17.677a21.063,21.063,0,0,0,9.771,1,22.743,22.743,0,0,0,9.257-3.31,19.418,19.418,0,0,0,9.353-17.42c-.064-1.671-.289-3.471-.482-5.271v-.032c-.193-1.511-.064-2.507.675-3.31s1.736-1,3.278-.9c13.435.9,21.309-3.118,24.877-8.935a16.943,16.943,0,0,0,2.153-10.8,22.862,22.862,0,0,0-4.6-11.056c-5.239-6.878-14.56-11.41-26.259-8.678a17.6,17.6,0,0,0-3.278,1.189l-.964.386a6.234,6.234,0,0,1-8.357-1.768c-5.4-5.721-10.928-11.474-16.745-17.131a223.15,223.15,0,0,0-17.806-15.781l-.8-.643ZM175.167,475.972c-.225,2.153,1.928,2.861,4.146,3.568l1.029.321a235.189,235.189,0,0,1,22.434,9.031c7.424,3.407,14.592,7.007,21.663,10.574a4.122,4.122,0,0,0,2.378.739,4.758,4.758,0,0,0,2.121-1.318l.707-.675a23.111,23.111,0,0,1,3.182-2.635c11.474-7.36,23.206-6.042,31.5-.611a26.11,26.11,0,0,1,9.289,10.285,20.063,20.063,0,0,1,1.864,13.146c-1.607,7.875-8.485,15.4-22.884,19.445-.418.129-.45-.225-.514-.032-.1.161.193-.032.386.354v.032c.836,1.639,1.671,3.31,2.378,5.11a22.967,22.967,0,0,1-3.471,23.013,26.579,26.579,0,0,1-8.807,7.2,24.933,24.933,0,0,1-11.121,2.732c-7.874.032-16.1-3.889-22.177-13.6v-.032a19.5,19.5,0,0,1-2.539-6.267,17.939,17.939,0,0,1-.1-6.814,6.425,6.425,0,0,0,.064-1.125,2.728,2.728,0,0,0-.161-.771c-.225-.675-7.457-4.435-16.36-8.839-13.66-6.75-30.952-14.624-34.358-15.813h-.129a1.671,1.671,0,0,0-.514.482,23.238,23.238,0,0,1-5.882,5.625,22.132,22.132,0,0,1-7.36,3.118,24.571,24.571,0,0,1-23.848-7.264,25.746,25.746,0,0,1-5.689-9.514,22.866,22.866,0,0,1-.868-11.024c1.286-7.585,6.653-14.945,17.71-19.381.739-.321,1.029-.289,1.061-.354,0-.064-.225-.354-.643-1.093a21.949,21.949,0,0,1-2.668-8.324,23.249,23.249,0,0,1,.771-8.871c2.764-10.092,9.9-16.424,17.838-18.738a24.559,24.559,0,0,1,10.992-.707,21.745,21.745,0,0,1,10.028,4.435c5.914,4.693,9.706,12.856,8.549,24.588Zm3.086,6.942c-3.632-1.157-7.1-2.282-6.621-7.3,1.028-10.349-2.186-17.452-7.232-21.47a18.137,18.137,0,0,0-8.389-3.7,21.286,21.286,0,0,0-9.417.579c-6.846,2.025-13.017,7.489-15.46,16.3a20.915,20.915,0,0,0-.643,7.553,18.3,18.3,0,0,0,2.25,6.975c.932,1.671,1.286,2.764.932,3.921-.386,1.189-1.35,1.832-3.118,2.539-9.739,3.921-14.463,10.221-15.556,16.681a19.649,19.649,0,0,0,.771,9.353,22.019,22.019,0,0,0,4.885,8.2,21.085,21.085,0,0,0,20.474,6.235,18.632,18.632,0,0,0,6.235-2.635,19.913,19.913,0,0,0,4.982-4.757,5.018,5.018,0,0,1,1.8-1.607,3.638,3.638,0,0,1,2.8-.129c3.5,1.221,21.02,9.16,34.776,15.974,9.61,4.757,17.517,9.128,18.127,10.735a7.16,7.16,0,0,1,.386,1.832,9.734,9.734,0,0,1-.129,1.961,14.33,14.33,0,0,0,.1,5.5,15.641,15.641,0,0,0,2.089,5.143c5.335,8.517,12.406,11.956,19.156,11.924a21.474,21.474,0,0,0,9.546-2.346,22.966,22.966,0,0,0,7.585-6.235,19.4,19.4,0,0,0,2.957-19.542c-.611-1.607-1.446-3.214-2.25-4.821v-.032c-.675-1.35-.9-2.346-.45-3.343.418-1,1.286-1.511,2.8-1.928,12.921-3.664,19.027-10.124,20.409-16.777a16.92,16.92,0,0,0-1.575-10.9,22.872,22.872,0,0,0-8.067-8.871c-7.264-4.725-17.549-5.882-27.641.643a20.966,20.966,0,0,0-2.7,2.218l-.739.707a7.659,7.659,0,0,1-4.05,2.218,7.415,7.415,0,0,1-4.435-1.061c-7.135-3.632-14.335-7.264-21.534-10.542a227.139,227.139,0,0,0-22.049-8.871l-1-.322Zm73.7-275.8c1-20.088-5.528-32.623-14.913-38.28a26.721,26.721,0,0,0-20.184-2.764A39.727,39.727,0,0,0,196.54,178.96c-13.338,15.331-20.345,42.972-7.328,81.22l.739,2.25c1.093,3.246,1.639,4.885,2.507,5.721.836.836,2.443,1.35,5.592,2.314l2.411.771c42.3,13.531,70.067,9.449,84.53-1.029a28.165,28.165,0,0,0,10.51-13.66,22.849,22.849,0,0,0-.225-15.2c-3.632-10.092-14.27-18.963-31.434-21.888a60.429,60.429,0,0,0-7.36-.771c-2.089-.064-3.214-.129-4.146-1.061-1.125-1.125-1-2.507-.739-5.528.1-1.318.257-3.021.354-4.982Zm-13.081-41.3c10.414,6.267,17.677,19.9,16.617,41.462-.129,2.282-.257,3.857-.354,5.11-.193,1.928-.354,2.7-.321,2.732.064.032.643,0,1.832.064a52.088,52.088,0,0,1,7.81.8c18.545,3.15,30.116,12.953,34.166,24.138a26.508,26.508,0,0,1,.225,17.549,31.665,31.665,0,0,1-11.764,15.4c-15.235,11.056-44.129,15.492-87.68,1.543l-2.411-.771c-3.7-1.157-5.56-1.736-7.007-3.15-1.478-1.446-2.089-3.343-3.375-7.167l-.739-2.218c-13.5-39.629-6.042-68.524,8.035-84.659,6.428-7.392,14.238-12.117,22.145-13.981a30.043,30.043,0,0,1,22.82,3.15ZM69.006,341.784c1.253,1.768,3.343.9,5.5-.032l1-.418c7.424-3.021,15.106-5.56,22.852-7.842,7.81-2.25,15.62-4.243,23.3-6.139a3,3,0,0,0,3.021-3.407l.1-1a25.458,25.458,0,0,1,.707-4.05c3.825-13.049,13.6-19.734,23.431-21.084a26.3,26.3,0,0,1,13.724,1.736,20.151,20.151,0,0,1,10.028,8.71c3.921,7.039,3.632,17.2-4.6,29.7-.225.354-.482.129-.418.321.032.161.129-.161.514,0h0c1.7.739,3.439,1.446,5.143,2.346a22.838,22.838,0,0,1,12.438,19.7,26.05,26.05,0,0,1-1.928,11.153,25,25,0,0,1-6.621,9.353c-5.946,5.175-14.72,7.585-25.68,4.21h0a20.244,20.244,0,0,1-6.042-3.086,18.224,18.224,0,0,1-4.532-5.078,4.7,4.7,0,0,0-.675-.9,4.076,4.076,0,0,0-.643-.514c-.611-.321-8.549,1.543-18.16,4.05-14.753,3.793-32.976,9.16-36.351,10.51l-.1.064a1.548,1.548,0,0,0-.032.707,24.225,24.225,0,0,1-.771,8.1,22.84,22.84,0,0,1-3.568,7.2A24.622,24.622,0,0,1,57.853,416.19a26.265,26.265,0,0,1-10.51-3.5,22.981,22.981,0,0,1-7.874-7.746c-3.985-6.621-4.725-15.685.707-26.259.386-.707.611-.932.579-1-.064-.032-.418-.1-1.189-.386a22.428,22.428,0,0,1-7.457-4.532,24,24,0,0,1-5.239-7.2c-4.5-9.481-3.214-18.931,1.253-25.873A24.386,24.386,0,0,1,36,331.981a22.124,22.124,0,0,1,10.478-3.214c7.553-.289,15.749,3.407,22.531,13.017Zm6.878,3.246c-3.5,1.478-6.878,2.925-9.771-1.221C60.135,335.324,53.032,332.046,46.6,332.3A18.252,18.252,0,0,0,37.83,335a21.057,21.057,0,0,0-6.75,6.621c-3.857,5.978-4.95,14.174-1,22.4a19.547,19.547,0,0,0,4.435,6.139,18.159,18.159,0,0,0,6.267,3.825c1.768.643,2.764,1.221,3.246,2.346.482,1.157.161,2.25-.707,3.953-4.789,9.321-4.243,17.2-.836,22.82a19.485,19.485,0,0,0,6.685,6.557,21.912,21.912,0,0,0,9.064,2.989,21.1,21.1,0,0,0,19.574-8.646,19.8,19.8,0,0,0,2.989-6.075,20.3,20.3,0,0,0,.643-6.878,5.352,5.352,0,0,1,.321-2.378,3.589,3.589,0,0,1,2.057-1.928c3.407-1.382,21.888-6.814,36.737-10.671,10.381-2.668,19.188-4.532,20.731-3.7a6.21,6.21,0,0,1,1.478,1.125,7.9,7.9,0,0,1,1.189,1.543,14.593,14.593,0,0,0,3.664,4.114,16.9,16.9,0,0,0,4.918,2.507c9.61,2.957,17.227.932,22.306-3.5a21.264,21.264,0,0,0,5.689-8,22.852,22.852,0,0,0,1.671-9.706,19.447,19.447,0,0,0-10.51-16.713c-1.511-.771-3.214-1.478-4.885-2.186h0c-1.414-.579-2.218-1.189-2.539-2.218-.354-1.061-.032-2.025.836-3.31,7.392-11.217,7.778-20.088,4.468-26.034a16.835,16.835,0,0,0-8.292-7.2,23.167,23.167,0,0,0-11.924-1.478c-8.582,1.189-17.1,7.071-20.506,18.577a22.62,22.62,0,0,0-.546,3.439l-.129,1.028a6.284,6.284,0,0,1-5.657,6.428c-7.746,1.9-15.556,3.889-23.173,6.107a221.338,221.338,0,0,0-22.531,7.714l-.932.418ZM609.87,677.269a19.011,19.011,0,0,0-5.046,8.26l-.032.032a28.689,28.689,0,0,0-1.35,6.846,30.87,30.87,0,0,0,.418,7.071,16.524,16.524,0,0,0,.386,1.607,18.157,18.157,0,0,0,7.167,10,16.787,16.787,0,0,0,12.5,2.636,13.143,13.143,0,0,0,1.8-.418,35.119,35.119,0,0,1,5.721-1.061c1.864-.161,3.76-.225,5.625-.225a29.68,29.68,0,0,1,9.771,1.639,26,26,0,0,1,8.292,4.885l2.25,1.9c1.189,1,2.378,1.993,3.728,3.182a23.519,23.519,0,0,0,4.982,3.535,15.133,15.133,0,0,0,5.721,1.607,28.314,28.314,0,0,0,4.66.032,12.915,12.915,0,0,0,4.146-1.157,24.579,24.579,0,0,0,8.2-6.332,25.211,25.211,0,0,0,4.757-9.449,18.825,18.825,0,0,0,.578-7.167,24.2,24.2,0,0,0-1.993-7.135v-.032c-1.157-2.668-2.314-5.335-3.31-8.067a35.433,35.433,0,0,1-1.832-8.035c-.289-2.636-.354-5.3-.386-7.971a28.942,28.942,0,0,0-2.636-12.374,31.462,31.462,0,0,0-7.874-10.285,21.015,21.015,0,0,0-10.124-5.207,20.461,20.461,0,0,0-11.217,1.382,33.8,33.8,0,0,0-6.814,3.664,35.82,35.82,0,0,0-5.753,5.11c-.45.514-1.029,1.125-1.8,2.025-.546.611-1.125,1.318-1.736,2.057a34.892,34.892,0,0,1-7.328,6.653,37.789,37.789,0,0,1-8.871,4.307l-1.35.418c-1,.321-1.993.643-2.8.932a25.176,25.176,0,0,0-8.453,5.142Zm124.77-7.874a18.2,18.2,0,0,1-2.443,4.467,31.373,31.373,0,0,1-3.15,3.7,44.689,44.689,0,0,1-6.075,5.239,35.316,35.316,0,0,1-7.071,3.953,14.623,14.623,0,0,1-10.446.546,14.811,14.811,0,0,1-7.971-6.878,18.687,18.687,0,0,1-2.7-9.064,16.792,16.792,0,0,1,2.636-9.224,42.112,42.112,0,0,1,5.85-7.778,34.874,34.874,0,0,1,7.714-6.042,29.263,29.263,0,0,1,3.921-1.832,26.606,26.606,0,0,1,3.986-1.157,1.366,1.366,0,0,0,.354-.064,13.994,13.994,0,0,1,10.478,2.25,14.49,14.49,0,0,1,5.785,9.064l.064.386a27.176,27.176,0,0,1,.321,6.235,26.653,26.653,0,0,1-1.221,6.139l-.032.064Zm-5.3,2.41a14.82,14.82,0,0,0,1.961-3.568,21.87,21.87,0,0,0,1.061-5.3,21.6,21.6,0,0,0-.289-5.367l-.032-.289a10.985,10.985,0,0,0-4.371-6.878,10.464,10.464,0,0,0-7.81-1.671l-.257.064a21.45,21.45,0,0,0-3.471,1,27.41,27.41,0,0,0-3.407,1.607,30.01,30.01,0,0,0-6.91,5.432,41.042,41.042,0,0,0-5.367,7.135,13.545,13.545,0,0,0-2.153,7.328,15.542,15.542,0,0,0,2.282,7.392,10.5,10.5,0,0,0,13.981,4.789,30.7,30.7,0,0,0,6.364-3.535,39.828,39.828,0,0,0,5.593-4.853,27.213,27.213,0,0,0,2.828-3.278Zm-61.614-49.818a22.389,22.389,0,0,1-1.382,4.757,21.493,21.493,0,0,1-2.314,4.21,20.409,20.409,0,0,1-2.732,3.053,18.087,18.087,0,0,1-3.535,2.443A14.956,14.956,0,0,1,653.9,637.9a18.87,18.87,0,0,1-10.542-.707,16.1,16.1,0,0,1-10.189-11.7,34.441,34.441,0,0,1-.289-14.913,35.125,35.125,0,0,1,6.171-13.563,16.028,16.028,0,0,1,7.264-5.657,17.128,17.128,0,0,1,9.417-.643,17.43,17.43,0,0,1,8.035,3.535,14.17,14.17,0,0,1,4.564,6.91,26.493,26.493,0,0,1,.932,4.757,27.227,27.227,0,0,1,.064,5.11c-.257,3.31-.836,6.557-1.382,9.8l-.225,1.157Zm-4.628,3.407a20.029,20.029,0,0,0,1.157-4.018l.193-1.157a88.549,88.549,0,0,0,1.35-9.482,23.072,23.072,0,0,0-.032-4.468,23.772,23.772,0,0,0-.8-4.05,10.443,10.443,0,0,0-3.439-5.239,13.951,13.951,0,0,0-6.428-2.8,13.671,13.671,0,0,0-7.521.482,12.334,12.334,0,0,0-5.657,4.435,30.236,30.236,0,0,0-5.3,25.616,13.857,13.857,0,0,0,1.286,3.407,12.333,12.333,0,0,0,6.717,5.753,15.2,15.2,0,0,0,8.517.579,14.049,14.049,0,0,0,2.957-1.093,14.326,14.326,0,0,0,2.828-1.993,14.971,14.971,0,0,0,2.25-2.507,18.353,18.353,0,0,0,1.928-3.471Zm13.821-3.246a45.522,45.522,0,0,1,4.5-8.71,29.967,29.967,0,0,1,6.846-7.3,17.694,17.694,0,0,1,10.349-3.632,18.971,18.971,0,0,1,10.735,3.246,12.6,12.6,0,0,1,4.532,5.143,19.729,19.729,0,0,1,1.8,6.332,20.174,20.174,0,0,1-.225,6.685,26.79,26.79,0,0,1-2.057,6.171,53.155,53.155,0,0,1-4.243,7.585,43,43,0,0,1-5.625,6.717,17.113,17.113,0,0,1-9.031,4.693,16.2,16.2,0,0,1-9.932-1.671,17.993,17.993,0,0,1-7.617-7.553,16.79,16.79,0,0,1-1.736-10.381c.289-1.736.675-3.343,1.093-4.918l.546-2.25.064-.161Zm7.424-6.75a42.746,42.746,0,0,0-4.082,7.907l-.514,2.121c-.418,1.575-.8,3.15-1.061,4.6a13.171,13.171,0,0,0,1.414,8.2,14.312,14.312,0,0,0,6.075,6.042,12.624,12.624,0,0,0,7.778,1.318,13.311,13.311,0,0,0,7.135-3.728,38.82,38.82,0,0,0,5.143-6.171,47.082,47.082,0,0,0,3.953-7.071,23.447,23.447,0,0,0,1.8-5.367,16.958,16.958,0,0,0,.193-5.56,16.26,16.26,0,0,0-1.479-5.207,9.161,9.161,0,0,0-3.278-3.76,15.944,15.944,0,0,0-8.774-2.7,14.186,14.186,0,0,0-8.26,2.957,26.612,26.612,0,0,0-6.042,6.428Zm-89.833,12.149c.225-.45.482-.964.739-1.511a46.263,46.263,0,0,1,2.668-4.757,16.639,16.639,0,0,1,3.021-3.343,16.1,16.1,0,0,1,8.807-3.857,14.511,14.511,0,0,1,9.867,2.539,17.365,17.365,0,0,1,3.568,3.214,28.18,28.18,0,0,1,2.153,2.893A16.893,16.893,0,0,1,627.065,626a44.9,44.9,0,0,1,2.989,12.117,33.092,33.092,0,0,1-1.157,12.471c-1.8,6.075-4.853,10.06-8.742,12.246-4.275,2.443-9.482,2.668-14.978,1.189a12.812,12.812,0,0,1-5.528-3.086,18.509,18.509,0,0,1-3.953-5.625,35.038,35.038,0,0,1-3.246-13.306,43.445,43.445,0,0,1,1.928-14.142l.032-.161Zm3.921.064-.707,1.446a38.669,38.669,0,0,0-1.736,12.792,31.289,31.289,0,0,0,2.925,11.988,15.431,15.431,0,0,0,3.15,4.532,9.527,9.527,0,0,0,4.018,2.25c4.66,1.221,8.9,1.093,12.31-.836,3.118-1.768,5.592-5.046,7.1-10.189a29.489,29.489,0,0,0,1.061-11.185,40.949,40.949,0,0,0-2.8-11.121,14.756,14.756,0,0,0-1.382-2.635,20.854,20.854,0,0,0-1.9-2.539,14.086,14.086,0,0,0-2.86-2.571,11.165,11.165,0,0,0-7.521-1.961,12.7,12.7,0,0,0-6.878,3.021,13.464,13.464,0,0,0-2.378,2.668,39.857,39.857,0,0,0-2.411,4.339Z" transform="translate(0 0)" fill="#fff"/>
</svg>
